<svg width="1061" height="2180" viewBox="0 0 1061 2180" fill="none" xmlns="http://www.w3.org/2000/svg">
<path d="M0.5 726.299C0.5 724.918 1.61929 723.799 3 723.799H4.55215V871.837H3C1.61929 871.837 0.5 870.718 0.5 869.337V726.299Z" fill="black" stroke="#626262"/>
<path d="M0.5 535.16C0.5 533.779 1.61929 532.66 3 532.66H4.55215V680.698H3C1.61929 680.698 0.5 679.579 0.5 678.198V535.16Z" fill="black" stroke="#626262"/>
<rect x="5.54688" y="0.5" width="1049.85" height="2179" rx="199.5" fill="black" stroke="#626262"/>
<path d="M0.5 390.33C0.5 388.949 1.61929 387.83 3 387.83H4.55215V461.77H3C1.61929 461.77 0.5 460.651 0.5 459.27V390.33Z" fill="black" stroke="#626262"/>
<path d="M1056.38 637.072H1057.93C1059.32 637.072 1060.43 638.191 1060.43 639.572V872.707C1060.43 874.087 1059.32 875.207 1057.93 875.207H1056.38V637.072Z" fill="black" stroke="#626262"/>
</svg>
