<svg width="1053" height="2113" viewBox="0 0 1053 2113" fill="none" xmlns="http://www.w3.org/2000/svg">
<path d="M15.22 433.7H9.67999C5.43845 433.7 2 437.139 2 441.38V505.8C2 510.042 5.43845 513.48 9.67999 513.48H15.22C19.4616 513.48 22.9 510.042 22.9 505.8V441.38C22.9 437.139 19.4616 433.7 15.22 433.7Z" fill="#D3D5D1" stroke="#FFFAE9" stroke-width="4" stroke-miterlimit="10"/>
<path d="M15.22 586.82H9.67999C5.43845 586.82 2 590.259 2 594.5V730.82C2 735.062 5.43845 738.5 9.67999 738.5H15.22C19.4616 738.5 22.9 735.062 22.9 730.82V594.5C22.9 590.259 19.4616 586.82 15.22 586.82Z" fill="#D3D5D1" stroke="#FFFAE9" stroke-width="4" stroke-miterlimit="10"/>
<path d="M15.22 784.82H9.67999C5.43845 784.82 2 788.259 2 792.5V928.82C2 933.062 5.43845 936.5 9.67999 936.5H15.22C19.4616 936.5 22.9 933.062 22.9 928.82V792.5C22.9 788.259 19.4616 784.82 15.22 784.82Z" fill="#D3D5D1" stroke="#FFFAE9" stroke-width="4" stroke-miterlimit="10"/>
<path d="M1042.56 628.641H1037.02C1032.78 628.641 1029.34 632.079 1029.34 636.321V862.021C1029.34 866.262 1032.78 869.701 1037.02 869.701H1042.56C1046.8 869.701 1050.24 866.262 1050.24 862.021V636.321C1050.24 632.079 1046.8 628.641 1042.56 628.641Z" fill="#D3D5D1" stroke="#FFFAE9" stroke-width="4" stroke-miterlimit="10"/>
<path d="M878.28 2H173.44C84.2349 2 11.9199 74.315 11.9199 163.52V1949.42C11.9199 2038.62 84.2349 2110.94 173.44 2110.94H878.28C967.485 2110.94 1039.8 2038.62 1039.8 1949.42V163.52C1039.8 74.315 967.485 2 878.28 2Z" fill="#0A0708" stroke="#FFFAE9" stroke-width="4" stroke-miterlimit="10"/>
<path d="M595.839 18.8599H452.119C449.779 18.8599 447.859 16.9399 447.859 14.5999C447.859 12.2599 449.779 10.3398 452.119 10.3398H595.839C598.179 10.3398 600.099 12.2599 600.099 14.5999C600.099 16.9399 598.179 18.8599 595.839 18.8599Z" fill="#1A1A1A"/>
<path d="M625.26 2C619.3 2 614.48 6.81997 614.48 12.78C614.48 22.68 606.38 30.78 596.48 30.78H450.62C440.72 30.78 432.62 22.68 432.62 12.78C432.62 6.81997 427.8 2 421.84 2" stroke="#FFFAE9" stroke-width="4" stroke-miterlimit="10"/>
<path d="M421.642 85.4078C423.183 75.9113 416.735 66.9633 407.238 65.4218C397.742 63.8803 388.794 70.329 387.252 79.8255C385.711 89.322 392.159 98.2701 401.656 99.8116C411.152 101.353 420.1 94.9043 421.642 85.4078Z" fill="#D3D5D1" stroke="#1A1A1A" stroke-width="4" stroke-miterlimit="10"/>
<path d="M699.12 78.3613L699.12 78.3709V78.3805V79.3005C699.12 102.381 680.251 120.44 657.06 120.44H398.24C375.105 120.44 356.18 101.516 356.18 78.3805H356.178C355.986 62.8917 343.38 49.9805 327.8 49.9805H184.76C118.016 49.9805 63.4004 104.596 63.4004 171.34V1939.62C63.4004 2006.36 118.016 2060.98 184.76 2060.98H867.52C934.265 2060.98 988.88 2006.36 988.88 1939.62V171.36C988.88 104.616 934.265 50.0005 867.52 50.0005H867.5H727.78C712.065 50.0005 699.271 62.6627 699.12 78.3613Z" stroke="#FFFBEA" stroke-width="4"/>
<mask id="mask0_443_698" style="mask-type:alpha" maskUnits="userSpaceOnUse" x="65" y="51" width="922" height="2008">
<path d="M867.5 52.0005H727.78C713.16 52.0005 701.26 63.7805 701.12 78.3805V79.3005C701.12 103.54 681.3 122.44 657.06 122.44H398.24C374 122.44 354.18 102.62 354.18 78.3805V78.7405C354.18 64.1605 342.36 51.9805 327.8 51.9805H184.76C119.12 51.9805 65.4004 105.7 65.4004 171.34V1939.62C65.4004 2005.26 119.12 2058.98 184.76 2058.98H867.52C933.16 2058.98 986.88 2005.26 986.88 1939.62V171.36C986.88 105.72 933.16 52.0005 867.52 52.0005H867.5Z" fill="white"/>
</mask>
<g mask="url(#mask0_443_698)">
<g clip-path="url(#clip0_443_698)">
<rect width="926.943" height="2006" transform="translate(64.3809 52.4805)" fill="white"/>
<path d="M991.344 52.4805H64.3809V2057.62H991.344V52.4805Z" fill="#DCD9D9"/>
<path d="M64.3809 52.4805L991.324 2057.62" stroke="#1A1A1A" stroke-width="1.51135" stroke-miterlimit="10"/>
<path d="M991.324 52.4805L64.3809 2057.62" stroke="#1A1A1A" stroke-width="1.51135" stroke-miterlimit="10"/>
<rect x="64.3809" y="52.4805" width="926.943" height="71.3033" fill="#0A0708"/>
<rect x="64.3809" y="123.784" width="926.943" height="1939.45" fill="#0A0708"/>
</g>
</g>
<defs>
<clipPath id="clip0_443_698">
<rect width="926.943" height="2006" fill="white" transform="translate(64.3809 52.4805)"/>
</clipPath>
</defs>
</svg>
