<svg xmlns="http://www.w3.org/2000/svg" viewBox="0 0 117.52 117.52"><defs><style>.cls-1{fill:#fff;}.cls-2{fill:#231f20;}</style></defs><g id="Layer_2" data-name="Layer 2"><g id="Layer_1-2" data-name="Layer 1"><path class="cls-1" d="M40.06,20.38v5.89H46v-5.9ZM90.58,71.57v5.89h5.89V71.56ZM.13.13l0,20.29,40,0,0-20.29Zm0,26.18L0,113.36l40-40,.07-47.09ZM46,.08V20.37l50.58-.06-.06,51.25,21,0L117.52,0Zm0,26.19L45.9,71.63l44.68-.06.06-45.36Zm20,26.9L65,52.28l-.16-.14L64.74,52l-.88-.87-.39-.39-2-2,3.44-3.45.82-.82.38-.38,2-2,2.06,2.06.38.39.88.88.15.14.15.15.87.87L74.94,49,73,51l-.37.37-.83.83-.14.14-.14.14-.83.83-.38.38-2,2Zm5-4.26L69.52,47.5l-.15-.14-.87-.88-.39-.39-.37.38-.82.82-.16.14-.14.14-.82.84-.38.37.39.39.88.87.14.15,1.41,1.41.38-.37.83-.83.15-.14.14-.15.83-.82ZM96.47,77.45l0,40,21,0,.05-40Zm-52.31.07-40,40,86.37-.11,0-39.95Z"/><path d="M72.5,46.57l-.87-.87-.15-.15-.15-.14-.88-.88-.38-.39L68,42.08l-2,2-.38.38-.82.82-3.44,3.45,2,2,.39.39.88.87.14.15.16.14.86.89,2.45,2.44,2-2,.38-.38.83-.83.14-.14.14-.14.83-.83L73,51l2-1.95Zm-1.93,2.72-.83.82-.14.15-.15.14-.83.83-.38.37-1.41-1.41L66.69,50l-.88-.87-.39-.39.38-.37.82-.84.14-.14.16-.14.82-.82.37-.38.39.39.87.88.15.14,1.41,1.41Z"/><polygon class="cls-2" points="69.56 33.74 69.7 39.17 69.7 39.28 69.63 39.34 68.4 40.57 67.97 40.99 65.71 43.25 65.27 43.69 64.32 44.64 63.99 44.97 63.83 44.81 63.7 44.7 63.54 44.52 69.06 39 68.92 33.57 68.92 33.47 73.75 28.65 73.91 28.83 74.03 28.93 74.19 29.11 69.56 33.74"/><polygon class="cls-2" points="68.54 46.09 67.15 47.48 66.99 47.66 66.82 47.82 66.65 47.64 66.54 47.53 66.36 47.36 66.52 47.19 66.7 47.03 67.66 46.08 68.09 45.64 68.54 46.09"/><polygon class="cls-2" points="80.19 28.77 80.03 28.93 79.9 29.06 72.38 36.58 72.44 38.76 72.45 39.38 72.52 42.02 72.52 42.11 70.8 43.83 70.35 43.38 71.89 41.84 71.76 36.41 71.76 36.31 71.82 36.24 79.45 28.61 79.58 28.48 79.74 28.32 79.9 28.5 80.01 28.61 80.19 28.77"/><path class="cls-2" d="M71.9,39.14v.23h.23l3.11.07h.1l.07-.07L85.51,29.3l.16-.16L85.5,29l-.11-.12-.17-.17-.17.17-10,10-3-.07h-.24v.4Z"/><polygon class="cls-2" points="88.35 43.25 88.19 43.42 88.16 43.45 88.12 43.5 88.09 43.51 83.6 48.01 83.53 48.08 83.43 48.08 78 47.94 76.46 49.48 74.19 51.74 73.76 52.18 72.48 53.46 72.3 53.3 72.19 53.19 72.03 53.01 72.19 52.85 72.36 52.68 73.31 51.73 73.75 51.29 76.01 49.03 76.44 48.59 77.66 47.37 77.72 47.3 77.83 47.31 83.25 47.44 87.63 43.06 87.66 43.04 87.67 43.02 87.72 42.97 87.89 42.8 88.06 42.97 88.17 43.09 88.35 43.25"/><polygon class="cls-2" points="71.36 48.91 70.94 49.34 69.97 50.3 69.81 50.48 69.64 50.64 69.47 50.46 69.36 50.35 69.18 50.19 69.52 49.85 70.47 48.9 70.91 48.46 71.36 48.91"/><polygon class="cls-2" points="88.68 37.26 88.52 37.42 88.39 37.55 80.76 45.18 80.69 45.24 80.58 45.24 75.16 45.11 73.62 46.65 73.17 46.2 73.61 45.76 74.82 44.55 74.89 44.48 74.98 44.48 77.61 44.55 78.24 44.56 80.42 44.62 88.23 36.81 88.39 36.99 88.5 37.1 88.68 37.26"/><path class="cls-2" d="M77.62,44.86v.23h.63v-.24l-.07-2.95,10-10,.16-.17-.17-.17L88,31.5l-.17-.17-.16.16L77.61,41.58l-.07.07v.1Z"/><path class="cls-2" d="M74,29.4h0a.52.52,0,0,0,.38-.16.48.48,0,0,0,.15-.38h0a.53.53,0,0,0-.17-.38A.52.52,0,0,0,74,28.3h0a.52.52,0,0,0-.38.15.48.48,0,0,0-.15.38h0a.56.56,0,0,0,.17.39A.6.6,0,0,0,74,29.4Z"/><path class="cls-2" d="M85.48,29.44h0a.51.51,0,0,0,.38-.16A.48.48,0,0,0,86,28.9h0a.54.54,0,0,0-.17-.39.58.58,0,0,0-.38-.17h0a.54.54,0,0,0-.38.15.51.51,0,0,0-.15.38h0a.56.56,0,0,0,.17.39A.61.61,0,0,0,85.48,29.44Z"/><path class="cls-2" d="M88.12,32.08h0a.51.51,0,0,0,.53-.53h0a.6.6,0,0,0-.17-.39A.57.57,0,0,0,88.1,31a.51.51,0,0,0-.54.53.58.58,0,0,0,.17.39A.54.54,0,0,0,88.12,32.08Z"/><path class="cls-2" d="M79.9,29.06a.55.55,0,0,0,.54-.15.57.57,0,0,0,0-.82.59.59,0,0,0-.83,0,.55.55,0,0,0-.15.54.59.59,0,0,0,.17.29A.57.57,0,0,0,79.9,29.06Zm.08-.57a0,0,0,0,1,0,0,0,0,0,0,1,.05,0s0,.05,0,.05,0,0,0,0S80,28.5,80,28.49Z"/><path class="cls-2" d="M88.39,37.55a.55.55,0,0,0,.54-.15.6.6,0,0,0-.85-.85.57.57,0,0,0-.14.55.64.64,0,0,0,.16.29A.65.65,0,0,0,88.39,37.55Zm.09-.6s0,0,0,0a0,0,0,0,1,0,0s0,0,0,0S88.46,37,88.48,37Z"/><path class="cls-2" d="M88.55,43.4a.56.56,0,0,0,0-.78.59.59,0,0,0-.39-.18h0a.51.51,0,0,0-.38.15.54.54,0,0,0-.15.38l.56.56A.51.51,0,0,0,88.55,43.4Zm-.47.12s0,0,.08,0L87.6,43a.14.14,0,0,0,0,.09.44.44,0,0,0,.14.3A.48.48,0,0,0,88.08,43.52Zm.08-.09v-.12L87.67,43l-.07,0,.56.56Z"/><polygon class="cls-2" points="72.81 53.13 68.81 57.13 68.39 57.56 67.27 58.66 67.41 64.09 67.42 64.18 67.36 64.25 62.6 69 62.44 68.83 62.31 68.72 62.15 68.56 62.42 68.28 66.78 63.91 66.65 58.49 66.65 58.39 66.72 58.32 67.94 57.11 68.36 56.67 70.63 54.41 71.06 53.98 72.03 53.01 72.19 52.85 72.36 52.68 72.52 52.86 72.63 52.97 72.81 53.13"/><polygon class="cls-2" points="65.56 54.73 64.45 55.83 64.59 61.25 64.59 61.35 56.89 69.05 56.89 69.06 56.6 69.35 56.43 69.17 56.32 69.06 56.16 68.88 63.95 61.09 63.9 58.9 63.88 58.27 63.81 55.65 63.81 55.56 63.88 55.49 65.11 54.28 65.53 53.84 65.98 54.29 65.56 54.73"/><polygon class="cls-2" points="69.97 50.3 69.81 50.48 69.64 50.64 68.68 51.59 68.24 52.03 67.79 51.58 68.23 51.14 69.52 49.85 69.69 50.03 69.79 50.13 69.97 50.3"/><path class="cls-2" d="M64.44,58.52v-.23H64.2l-3.11-.07H61l-.07.07L50.84,68.36l-.17.16.17.17.12.12.17.17.16-.17,10-10,2.95.07h.24v-.4Z"/><polygon class="cls-2" points="64.32 44.64 60.33 48.64 59.9 49.07 58.68 50.28 58.61 50.35 58.51 50.35 53.09 50.22 48.46 54.85 48.28 54.69 47.99 54.4 48.25 54.14 52.75 49.65 52.82 49.58 52.91 49.59 58.34 49.73 59.45 48.62 59.88 48.19 63.87 44.2 64.03 44.37 64.15 44.48 64.32 44.64"/><polygon class="cls-2" points="63.16 51.47 62.74 51.91 61.51 53.12 61.44 53.19 61.35 53.19 58.73 53.12 58.1 53.1 55.92 53.05 48.4 60.57 48.28 60.69 48.12 60.86 47.94 60.68 47.83 60.57 47.67 60.4 55.65 52.41 55.75 52.42 61.17 52.55 62.27 51.44 62.71 51.02 63.16 51.47"/><polygon class="cls-2" points="67.15 47.48 66.99 47.66 66.82 47.82 65.86 48.77 65.42 49.21 64.97 48.76 65.41 48.32 66.36 47.36 66.52 47.19 66.7 47.03 66.86 47.21 66.97 47.31 67.15 47.48"/><path class="cls-2" d="M58.72,52.8v-.23h-.63v.24l.08,3-10,10-.16.17.17.17.11.11.17.17.16-.16L58.73,56.08,58.8,56v-.1Z"/><path class="cls-2" d="M62.33,68.27a.51.51,0,0,0-.39.15.54.54,0,0,0-.15.38.54.54,0,0,0,.17.39.51.51,0,0,0,.39.17.48.48,0,0,0,.38-.15.49.49,0,0,0,.15-.39.55.55,0,0,0-.16-.38A.56.56,0,0,0,62.33,68.27Z"/><path class="cls-2" d="M51.41,68.79a.54.54,0,0,0-.17-.39.56.56,0,0,0-.38-.17.53.53,0,0,0-.39.16.52.52,0,0,0-.15.38.54.54,0,0,0,.17.39.56.56,0,0,0,.39.17.52.52,0,0,0,.38-.15A.48.48,0,0,0,51.41,68.79Z"/><path class="cls-2" d="M48.77,66.15a.52.52,0,0,0-.17-.39.53.53,0,0,0-.38-.17h0a.48.48,0,0,0-.38.15.46.46,0,0,0-.15.38.58.58,0,0,0,.56.56.48.48,0,0,0,.38-.15A.54.54,0,0,0,48.77,66.15Z"/><path class="cls-2" d="M56.74,69.59a.55.55,0,0,0,.15-.54.65.65,0,0,0-.16-.29.75.75,0,0,0-.29-.16.57.57,0,0,0-.55.14.59.59,0,0,0,0,.83A.57.57,0,0,0,56.74,69.59Zm-.45-.45s0,0,.06,0a0,0,0,0,1,0,0s0,0-.05,0S56.28,69.15,56.29,69.14Z"/><path class="cls-2" d="M48.26,61.1a.58.58,0,0,0,.15-.54.59.59,0,0,0-.17-.28.62.62,0,0,0-.29-.17.56.56,0,0,0-.53.15.59.59,0,0,0,.84.84Zm-.45-.45s0,0,0,0a0,0,0,0,1,0,.05,0,0,0,0,1-.06,0A0,0,0,0,1,47.81,60.65Z"/><path class="cls-2" d="M48.18,54.12a.52.52,0,0,0-.39.15.54.54,0,0,0-.15.38.58.58,0,0,0,.56.56.48.48,0,0,0,.38-.15.51.51,0,0,0,.16-.38h0a.58.58,0,0,0-.17-.38A.56.56,0,0,0,48.18,54.12Z"/><polygon class="cls-2" points="69.56 33.74 69.7 39.17 69.7 39.28 69.63 39.34 68.4 40.57 67.97 40.99 65.71 43.25 65.27 43.69 64.32 44.64 63.99 44.97 63.83 44.81 63.7 44.7 63.54 44.52 69.06 39 68.92 33.57 68.92 33.47 73.75 28.65 73.91 28.83 74.03 28.93 74.19 29.11 69.56 33.74"/><polygon class="cls-2" points="68.54 46.09 67.15 47.48 66.99 47.66 66.82 47.82 66.65 47.64 66.54 47.53 66.36 47.36 66.52 47.19 66.7 47.03 67.66 46.08 68.09 45.64 68.54 46.09"/><polygon class="cls-2" points="80.19 28.77 80.03 28.93 79.9 29.06 72.38 36.58 72.44 38.76 72.45 39.38 72.52 42.02 72.52 42.11 70.8 43.83 70.35 43.38 71.89 41.84 71.76 36.41 71.76 36.31 71.82 36.24 79.45 28.61 79.58 28.48 79.74 28.32 79.9 28.5 80.01 28.61 80.19 28.77"/><path class="cls-2" d="M71.9,39.14v.23h.23l3.11.07h.1l.07-.07L85.51,29.3l.16-.16L85.5,29l-.11-.12-.17-.17-.17.17-10,10-3-.07h-.24v.4Z"/><polygon class="cls-2" points="88.35 43.25 88.19 43.42 88.16 43.45 88.12 43.5 88.09 43.51 83.6 48.01 83.53 48.08 83.43 48.08 78 47.94 76.46 49.48 74.19 51.74 73.76 52.18 72.48 53.46 72.3 53.3 72.19 53.19 72.03 53.01 72.19 52.85 72.36 52.68 73.31 51.73 73.75 51.29 76.01 49.03 76.44 48.59 77.66 47.37 77.72 47.3 77.83 47.31 83.25 47.44 87.63 43.06 87.66 43.04 87.67 43.02 87.72 42.97 87.89 42.8 88.06 42.97 88.17 43.09 88.35 43.25"/><polygon class="cls-2" points="71.36 48.91 70.94 49.34 69.97 50.3 69.81 50.48 69.64 50.64 69.47 50.46 69.36 50.35 69.18 50.19 69.52 49.85 70.47 48.9 70.91 48.46 71.36 48.91"/><polygon class="cls-2" points="88.68 37.26 88.52 37.42 88.39 37.55 80.76 45.18 80.69 45.24 80.58 45.24 75.16 45.11 73.62 46.65 73.17 46.2 73.61 45.76 74.82 44.55 74.89 44.48 74.98 44.48 77.61 44.55 78.24 44.56 80.42 44.62 88.23 36.81 88.39 36.99 88.5 37.1 88.68 37.26"/><path class="cls-2" d="M77.62,44.86v.23h.63v-.24l-.07-2.95,10-10,.16-.17-.17-.17L88,31.5l-.17-.17-.16.16L77.61,41.58l-.07.07v.1Z"/><path class="cls-2" d="M74,29.4h0a.52.52,0,0,0,.38-.16.48.48,0,0,0,.15-.38h0a.53.53,0,0,0-.17-.38A.52.52,0,0,0,74,28.3h0a.52.52,0,0,0-.38.15.48.48,0,0,0-.15.38h0a.56.56,0,0,0,.17.39A.6.6,0,0,0,74,29.4Z"/><path class="cls-2" d="M85.48,29.44h0a.51.51,0,0,0,.38-.16A.48.48,0,0,0,86,28.9h0a.54.54,0,0,0-.17-.39.58.58,0,0,0-.38-.17h0a.54.54,0,0,0-.38.15.51.51,0,0,0-.15.38h0a.56.56,0,0,0,.17.39A.61.61,0,0,0,85.48,29.44Z"/><path class="cls-2" d="M88.12,32.08h0a.51.51,0,0,0,.53-.53h0a.6.6,0,0,0-.17-.39A.57.57,0,0,0,88.1,31a.51.51,0,0,0-.54.53.58.58,0,0,0,.17.39A.54.54,0,0,0,88.12,32.08Z"/><path class="cls-2" d="M79.9,29.06a.55.55,0,0,0,.54-.15.57.57,0,0,0,0-.82.59.59,0,0,0-.83,0,.55.55,0,0,0-.15.54.59.59,0,0,0,.17.29A.57.57,0,0,0,79.9,29.06Zm.08-.57a0,0,0,0,1,0,0,0,0,0,0,1,.05,0s0,.05,0,.05,0,0,0,0S80,28.5,80,28.49Z"/><path class="cls-2" d="M88.39,37.55a.55.55,0,0,0,.54-.15.6.6,0,0,0-.85-.85.57.57,0,0,0-.14.55.64.64,0,0,0,.16.29A.65.65,0,0,0,88.39,37.55Zm.09-.6s0,0,0,0a0,0,0,0,1,0,0s0,0,0,0S88.46,37,88.48,37Z"/><path class="cls-2" d="M88.55,43.4a.56.56,0,0,0,0-.78.59.59,0,0,0-.39-.18h0a.51.51,0,0,0-.38.15.54.54,0,0,0-.15.38l.56.56A.51.51,0,0,0,88.55,43.4Zm-.47.12s0,0,.08,0L87.6,43a.14.14,0,0,0,0,.09.44.44,0,0,0,.14.3A.48.48,0,0,0,88.08,43.52Zm.08-.09v-.12L87.67,43l-.07,0,.56.56Z"/><polygon class="cls-2" points="88.65 55.42 88.22 55.86 83.34 50.98 77.92 50.84 77.81 50.84 77.74 50.76 73.17 46.2 72.17 45.19 71.99 45.01 71.82 44.85 71.97 44.69 72.08 44.58 72.25 44.41 72.42 44.58 72.59 44.75 73.61 45.76 78.06 50.22 83.49 50.35 83.58 50.35 83.65 50.42 88.65 55.42"/><polygon class="cls-2" points="71.36 48.91 70.94 49.34 70.47 48.9 69.47 47.87 69.29 47.71 69.13 47.53 69.55 47.11 69.73 47.27 71.36 48.91"/><path class="cls-2" d="M89.28,61.44l0,0-.4.4,0-.07s0,0,0,0l-.09-.1-8-8-2.17-.06h-.62l-2.63-.07h-.1l-.07-.08-1.29-1.28-.45-.45.44-.44,1.62,1.62,5.42.14h.09l.07.07,8.16,8.16.11.11Z"/><path class="cls-2" d="M78.06,53.06h-.23v.24l.08,3.11v.1l.07.07,10.61,10.6.17.17.16-.16.11-.11.16-.16L89,66.74,78.53,56.25l-.07-3v-.23h-.39Z"/><polygon class="cls-2" points="75.19 68.88 74.75 69.32 69.69 64.25 69.69 64.16 69.55 58.72 68.39 57.56 65.56 54.73 65.11 54.28 63.74 52.91 64.18 52.48 64.34 52.66 64.52 52.82 65.53 53.84 68.36 56.67 68.81 57.13 70.11 58.41 70.18 58.47 70.18 58.57 70.31 64 75.01 68.71 75.19 68.88"/><polygon class="cls-2" points="68.68 51.59 68.24 52.03 66.61 50.39 66.44 50.22 66.61 50.05 66.72 49.94 66.88 49.79 67.04 49.96 67.22 50.12 68.23 51.14 68.68 51.59"/><polygon class="cls-2" points="81.21 69.51 80.78 69.95 80.72 69.89 80.61 69.78 72.45 61.62 72.38 61.55 72.38 61.46 72.25 56.03 71.08 54.86 70.63 54.41 71.06 53.98 71.51 54.43 72.81 55.71 72.87 55.78 72.87 55.88 72.94 58.51 72.95 59.14 73.01 61.31 81.03 69.35 81.16 69.45 81.21 69.51"/><path class="cls-2" d="M72.62,58.5h-.23v.63h.24l3,.07L86.07,69.69l.17.17.17-.17.1-.1.17-.17-.17-.17L75.9,58.65l-.07-.07h-.09Z"/><path class="cls-2" d="M88.69,55.9a.29.29,0,0,1-.22.09.34.34,0,0,1-.32-.32.29.29,0,0,1,.09-.22.25.25,0,0,1,.22-.08.31.31,0,0,1,.22.09.4.4,0,0,1,.1.23A.29.29,0,0,1,88.69,55.9Z"/><path class="cls-2" d="M89.23,67.38a.29.29,0,0,1-.22.09.35.35,0,0,1-.22-.1.34.34,0,0,1-.1-.22.29.29,0,0,1,.09-.22.29.29,0,0,1,.21-.09.4.4,0,0,1,.23.1.29.29,0,0,1,.09.22A.25.25,0,0,1,89.23,67.38Z"/><path class="cls-2" d="M86.71,69.9a.29.29,0,0,1-.22.08.31.31,0,0,1-.22-.09.4.4,0,0,1-.1-.23.27.27,0,0,1,.09-.21.29.29,0,0,1,.22-.09.28.28,0,0,1,.22.1.35.35,0,0,1,.1.22A.31.31,0,0,1,86.71,69.9Z"/><path class="cls-2" d="M89.37,62a.36.36,0,0,0,0-.5.42.42,0,0,0-.14-.09.34.34,0,0,0-.36.07.33.33,0,0,0-.08.34.42.42,0,0,0,.09.16A.36.36,0,0,0,89.37,62Zm-.45-.46a.26.26,0,0,1,.32,0l.06.05a.26.26,0,0,1,0,.38.28.28,0,0,1-.38,0,.18.18,0,0,1-.05-.07A.26.26,0,0,1,88.92,61.52Z"/><path class="cls-2" d="M81.31,70a.36.36,0,0,0,0-.5.31.31,0,0,0-.13-.08.34.34,0,0,0-.37.07.36.36,0,0,0-.07.36.42.42,0,0,0,.09.14A.36.36,0,0,0,81.31,70Zm-.46-.45a.26.26,0,0,1,.32,0,.18.18,0,0,1,.07,0,.26.26,0,0,1,0,.38.27.27,0,0,1-.38,0s0,0,0-.06A.26.26,0,0,1,80.85,69.59Z"/><path class="cls-2" d="M75.24,69.36a.27.27,0,0,1-.22.08.29.29,0,0,1-.22-.09.3.3,0,0,1-.1-.23.31.31,0,0,1,.3-.3.3.3,0,0,1,.22.1.27.27,0,0,1,.1.22A.29.29,0,0,1,75.24,69.36Z"/><polygon class="cls-2" points="64.52 52.82 64.08 53.26 62.74 51.91 62.27 51.44 58.28 47.45 52.84 47.31 52.75 47.31 47.86 42.42 47.7 42.25 48.13 41.81 48.29 41.99 52.99 46.69 58.43 46.82 58.53 46.82 58.59 46.89 59.88 48.19 62.71 51.02 63.16 51.47 64.18 52.48 64.34 52.66 64.52 52.82"/><polygon class="cls-2" points="63.02 45.94 62.59 46.38 62.14 45.92 60.98 44.75 55.54 44.62 55.45 44.62 55.38 44.55 47.23 36.4 47.05 36.22 47.49 35.79 55.69 43.99 57.86 44.05 58.48 44.06 61.13 44.13 61.22 44.13 61.29 44.21 63.02 45.94"/><polygon class="cls-2" points="67.22 50.12 67.06 50.28 66.95 50.39 66.78 50.56 66.61 50.39 66.44 50.22 65.42 49.21 64.97 48.76 65.41 48.32 65.86 48.77 67.04 49.96 67.22 50.12"/><path class="cls-2" d="M58.27,44.61h.24v-.23l-.07-3.11v-.1l-.07-.07L47.75,30.49l-.17-.17-.16.17-.11.1-.16.17.17.17L57.8,41.42l.08,2.95v.23h.39Z"/><polygon class="cls-2" points="72.59 44.75 72.42 44.92 72.31 45.03 72.17 45.19 71.99 45.01 71.82 44.85 70.8 43.83 70.35 43.38 66.17 39.19 66.16 39.1 66.02 33.66 61.32 28.96 61.16 28.79 61.32 28.62 61.41 28.51 61.58 28.35 61.76 28.53 66.58 33.35 66.65 33.42 66.65 33.51 66.78 38.95 67.95 40.11 68.4 40.57 70.79 42.94 71.24 43.39 72.25 44.41 72.42 44.58 72.59 44.75"/><polygon class="cls-2" points="65.26 42.8 65.71 43.25 65.27 43.69 64.82 43.24 63.54 41.96 63.47 41.88 63.47 41.78 63.4 39.15 63.39 38.53 63.34 36.36 55.3 28.32 55.12 28.16 55.39 27.89 55.56 27.72 55.73 27.89 63.88 36.05 63.95 36.12 63.95 36.21 64.08 41.63 65.26 42.8"/><polygon class="cls-2" points="69.89 47.44 69.74 47.6 69.47 47.87 69.29 47.71 67.66 46.08 68.09 45.64 68.54 46.09 69.55 47.11 69.73 47.27 69.89 47.44"/><path class="cls-2" d="M63.71,39.17H64v-.62H63.7l-3-.07L50.27,28l-.17-.17-.17.16-.11.11-.16.16.17.17L60.43,39l.07.07h.1Z"/><polygon class="cls-2" points="88.65 55.42 88.22 55.86 83.34 50.98 77.92 50.84 77.81 50.84 77.74 50.76 73.17 46.2 72.17 45.19 71.99 45.01 71.82 44.85 71.97 44.69 72.08 44.58 72.25 44.41 72.42 44.58 72.59 44.75 73.61 45.76 78.06 50.22 83.49 50.35 83.58 50.35 83.65 50.42 88.65 55.42"/><polygon class="cls-2" points="71.36 48.91 70.94 49.34 70.47 48.9 69.47 47.87 69.29 47.71 69.13 47.53 69.55 47.11 69.73 47.27 71.36 48.91"/><path class="cls-2" d="M89.28,61.44l0,0-.4.4,0-.07s0,0,0,0l-.09-.1-8-8-2.17-.06h-.62l-2.63-.07h-.1l-.07-.08-1.29-1.28-.45-.45.44-.44,1.62,1.62,5.42.14h.09l.07.07,8.16,8.16.11.11Z"/><path class="cls-2" d="M78.06,53.06h-.23v.24l.08,3.11v.1l.07.07,10.61,10.6.17.17.16-.16.11-.11.16-.16L89,66.74,78.53,56.25l-.07-3v-.23h-.39Z"/><polygon class="cls-2" points="75.19 68.88 74.75 69.32 69.69 64.25 69.69 64.16 69.55 58.72 68.39 57.56 65.56 54.73 65.11 54.28 63.74 52.91 64.18 52.48 64.34 52.66 64.52 52.82 65.53 53.84 68.36 56.67 68.81 57.13 70.11 58.41 70.18 58.47 70.18 58.57 70.31 64 75.01 68.71 75.19 68.88"/><polygon class="cls-2" points="68.68 51.59 68.24 52.03 66.61 50.39 66.44 50.22 66.61 50.05 66.72 49.94 66.88 49.79 67.04 49.96 67.22 50.12 68.23 51.14 68.68 51.59"/><polygon class="cls-2" points="81.21 69.51 80.78 69.95 80.72 69.89 80.61 69.78 72.45 61.62 72.38 61.55 72.38 61.46 72.25 56.03 71.08 54.86 70.63 54.41 71.06 53.98 71.51 54.43 72.81 55.71 72.87 55.78 72.87 55.88 72.94 58.51 72.95 59.14 73.01 61.31 81.03 69.35 81.16 69.45 81.21 69.51"/><path class="cls-2" d="M72.62,58.5h-.23v.63h.24l3,.07L86.07,69.69l.17.17.17-.17.1-.1.17-.17-.17-.17L75.9,58.65l-.07-.07h-.09Z"/><path class="cls-2" d="M88.69,55.9a.29.29,0,0,1-.22.09.34.34,0,0,1-.32-.32.29.29,0,0,1,.09-.22.25.25,0,0,1,.22-.08.31.31,0,0,1,.22.09.4.4,0,0,1,.1.23A.29.29,0,0,1,88.69,55.9Z"/><path class="cls-2" d="M89.23,67.38a.29.29,0,0,1-.22.09.35.35,0,0,1-.22-.1.34.34,0,0,1-.1-.22.29.29,0,0,1,.09-.22.29.29,0,0,1,.21-.09.4.4,0,0,1,.23.1.29.29,0,0,1,.09.22A.25.25,0,0,1,89.23,67.38Z"/><path class="cls-2" d="M86.71,69.9a.29.29,0,0,1-.22.08.31.31,0,0,1-.22-.09.4.4,0,0,1-.1-.23.27.27,0,0,1,.09-.21.29.29,0,0,1,.22-.09.28.28,0,0,1,.22.1.35.35,0,0,1,.1.22A.31.31,0,0,1,86.71,69.9Z"/><path class="cls-2" d="M89.37,62a.36.36,0,0,0,0-.5.42.42,0,0,0-.14-.09.34.34,0,0,0-.36.07.33.33,0,0,0-.08.34.42.42,0,0,0,.09.16A.36.36,0,0,0,89.37,62Zm-.45-.46a.26.26,0,0,1,.32,0l.06.05a.26.26,0,0,1,0,.38.28.28,0,0,1-.38,0,.18.18,0,0,1-.05-.07A.26.26,0,0,1,88.92,61.52Z"/><path class="cls-2" d="M81.31,70a.36.36,0,0,0,0-.5.31.31,0,0,0-.13-.08.34.34,0,0,0-.37.07.36.36,0,0,0-.07.36.42.42,0,0,0,.09.14A.36.36,0,0,0,81.31,70Zm-.46-.45a.26.26,0,0,1,.32,0,.18.18,0,0,1,.07,0,.26.26,0,0,1,0,.38.27.27,0,0,1-.38,0s0,0,0-.06A.26.26,0,0,1,80.85,69.59Z"/><path class="cls-2" d="M75.24,69.36a.27.27,0,0,1-.22.08.29.29,0,0,1-.22-.09.3.3,0,0,1-.1-.23.31.31,0,0,1,.3-.3.3.3,0,0,1,.22.1.27.27,0,0,1,.1.22A.29.29,0,0,1,75.24,69.36Z"/></g></g></svg>