<svg xmlns="http://www.w3.org/2000/svg" xmlns:xlink="http://www.w3.org/1999/xlink" width="450.07" height="450.057" viewBox="0 0 450.07 450.057"><defs><clipPath id="a"><path d="M20.285,144.328h450.07v86.25H20.285Zm0,0"/></clipPath></defs><g transform="translate(37.5 37.5)"><rect width="450" height="450" transform="translate(-37.5 -37.5)" fill="#fff"/><rect width="450" height="450" transform="translate(-37.5 -37.5)" fill="#fff"/><rect width="450" height="450" transform="translate(-37.5 -37.5)"/><path d="M256.308,86.754,273.39,69.662c33.541-33.57,88.162-34.4,121.9-1.028a86.25,86.25,0,0,1,16.8,99.007,41.348,41.348,0,0,0,7.869,47.38,120.658,120.658,0,0,0-.243-170.6C372.539-2.535,295.953-1.6,248.914,45.483L86.1,208.447l-13.39-13.4c-34.124-34.145-34.337-89.951.385-123.487a86.069,86.069,0,0,1,98.448-14.887A38.726,38.726,0,0,0,216.5,49.7l.415-.415a1.384,1.384,0,0,0-.01-1.962A120.432,120.432,0,0,0,49.211,46.8C.645,93.723.813,171.767,48.559,219.548L211.34,382.463l-17.294,17.31c-33.546,33.575-88.162,34.4-121.9,1.027a86.233,86.233,0,0,1-16.8-99,41.345,41.345,0,0,0-7.874-47.376C.452,301.452.536,378.063,47.7,425s123.754,46.021,170.8-1.058L381.544,260.764l13.434,13.444c33.546,33.575,34.372,88.237,1.024,122a86.067,86.067,0,0,1-98.922,16.81,41.27,41.27,0,0,0-47.335,7.884,120.414,120.414,0,0,0,170.457-.248c46.915-47.212,45.977-123.857-1.063-170.935ZM235.643,358.115,110.406,232.779,232,111.1,357.231,236.432Zm0,0" transform="translate(-46.433 -47.185)" fill="#fff"/><g transform="translate(-57.785)" clip-path="url(#a)"><path d="M20.3,144.328H470.33v86.25H20.3v-86.25" transform="translate(0.005)"/></g><g transform="translate(24.825 212.561)"><path d="M3.234-52.578H16.922v36.594q0,4.313,3.531,4.313a6.957,6.957,0,0,0,1.875-.281,8.21,8.21,0,0,0,1.875-.8L25.938-1.734a24.7,24.7,0,0,1-5.516,1.8,27.736,27.736,0,0,1-5.8.656q-5.484,0-8.437-2.8Q3.234-4.891,3.234-10.234Zm0,0" fill="#fff"/></g><g transform="translate(50.971 212.561)"><path d="M22.109.719A23.828,23.828,0,0,1,13.25-.828a18.724,18.724,0,0,1-6.516-4.2,18.274,18.274,0,0,1-4-6.125,19.772,19.772,0,0,1-1.359-7.281A22.68,22.68,0,0,1,2.7-26.219a17.949,17.949,0,0,1,3.953-6.406,19.072,19.072,0,0,1,6.484-4.359,22.985,22.985,0,0,1,8.969-1.625,23.057,23.057,0,0,1,8.938,1.625,19.176,19.176,0,0,1,6.516,4.313,17.873,17.873,0,0,1,3.953,6.281,20.97,20.97,0,0,1,1.344,7.453c0,.719-.039,1.453-.109,2.2s-.156,1.4-.25,1.969H15.922a5.313,5.313,0,0,0,2.234,4.359,7.8,7.8,0,0,0,4.391,1.328,9.14,9.14,0,0,0,4.2-1,5.131,5.131,0,0,0,2.641-2.812L40.984-9.578a18.27,18.27,0,0,1-7.094,7.422A22.533,22.533,0,0,1,22.109.719Zm6.063-23.7A7.1,7.1,0,0,0,26.141-27.3a5.883,5.883,0,0,0-4.25-1.594,5.871,5.871,0,0,0-4.25,1.594,7,7,0,0,0-2.016,4.313Zm0,0" fill="#fff"/></g><g transform="translate(94.907 212.561)"><path d="M14.625.719A14.615,14.615,0,0,1,9.359-.219a13.158,13.158,0,0,1-4.2-2.547A11.751,11.751,0,0,1,2.375-6.625a11.653,11.653,0,0,1-1-4.828A11.344,11.344,0,0,1,2.594-16.7a12.454,12.454,0,0,1,3.375-4.109,15.663,15.663,0,0,1,5.156-2.672,22.01,22.01,0,0,1,6.594-.937,17.862,17.862,0,0,1,7.641,1.438v-1.141A4.874,4.874,0,0,0,23.8-28.094q-1.547-1.295-5-1.3a16.737,16.737,0,0,0-5.984,1.047,29.331,29.331,0,0,0-5.75,3.063l-3.969-8.5a30.858,30.858,0,0,1,17.078-4.828q9.076,0,13.969,4.031t4.906,12.109v7.344a3.934,3.934,0,0,0,.719,2.7,3.965,3.965,0,0,0,2.594.891V0c-1.25.238-2.43.414-3.531.531a26.591,26.591,0,0,1-2.953.188A9.834,9.834,0,0,1,30.281-.609,6.175,6.175,0,0,1,27.8-4.531l-.281-1.375A17.537,17.537,0,0,1,21.688-.969,15.351,15.351,0,0,1,14.625.719Zm4.109-9.8a8.674,8.674,0,0,0,2.516-.391,9.4,9.4,0,0,0,2.3-1.047,5.721,5.721,0,0,0,1.3-1.266,2.318,2.318,0,0,0,.516-1.406v-2.8a19.268,19.268,0,0,0-2.672-.719,13.171,13.171,0,0,0-2.594-.3,6.8,6.8,0,0,0-4.172,1.234,3.694,3.694,0,0,0-1.656,3.094,3.184,3.184,0,0,0,1.25,2.594A5.021,5.021,0,0,0,18.734-9.078Zm0,0" fill="#fff"/></g><g transform="translate(138.411 212.561)"><path d="M19.3.719A17.65,17.65,0,0,1,12.141-.719,16.4,16.4,0,0,1,6.484-4.781a19.162,19.162,0,0,1-3.719-6.266,23.049,23.049,0,0,1-1.328-7.969,24.042,24.042,0,0,1,1.219-7.766,19.365,19.365,0,0,1,3.422-6.234A15.714,15.714,0,0,1,11.3-37.125a15.075,15.075,0,0,1,6.719-1.484,13.874,13.874,0,0,1,6.719,1.656,11.531,11.531,0,0,1,4.719,4.688V-52.578H43.141v37.453a3.933,3.933,0,0,0,.719,2.7,4.008,4.008,0,0,0,2.594.891V0q-2.08.357-3.672.531a24.049,24.049,0,0,1-2.8.188q-7,0-8.078-5.25l-.281-1.375A11.938,11.938,0,0,1,26.359-.859,16.241,16.241,0,0,1,19.3.719Zm3.75-11.531q3.75,0,6.484-3.875v-6.781a9.6,9.6,0,0,0-2.953-4.062,6.49,6.49,0,0,0-4.109-1.547,5.918,5.918,0,0,0-2.766.656,6.441,6.441,0,0,0-2.172,1.8,9.557,9.557,0,0,0-1.437,2.656,9.686,9.686,0,0,0-.531,3.234,8.018,8.018,0,0,0,2.047,5.766A7.178,7.178,0,0,0,23.047-10.812Zm0,0" fill="#fff"/></g><g transform="translate(186.813 212.561)"><path d="M3.453,0V-37.891H17.141V0Zm0-41.062V-52.578H17.141v11.516Zm0,0" fill="#fff"/></g><g transform="translate(207.412 212.561)"><path d="M20.313.719A39.514,39.514,0,0,1,15.2.359C13.379.117,11.586-.191,9.828-.578A47.032,47.032,0,0,1,4.75-1.984,26.126,26.126,0,0,1,.5-3.812l5.266-9.3a41.714,41.714,0,0,0,7.547,3.172,23.559,23.559,0,0,0,6.719,1.078q3.592,0,3.594-1.8,0-.937-1.437-1.656a31.816,31.816,0,0,0-5.469-1.734A62.926,62.926,0,0,1,9.938-16.2a16.874,16.874,0,0,1-4.391-2.406,8.036,8.036,0,0,1-2.375-2.953,9.288,9.288,0,0,1-.719-3.8,12.06,12.06,0,0,1,1.188-5.328,12.679,12.679,0,0,1,3.344-4.25A15.384,15.384,0,0,1,12.125-37.7a20.831,20.831,0,0,1,6.531-.984,33.816,33.816,0,0,1,8.172,1.094,51.025,51.025,0,0,1,8.906,3.156l-5.266,8.719a56.235,56.235,0,0,0-6.7-2.7,17.213,17.213,0,0,0-5.109-.828,5.983,5.983,0,0,0-2.562.469,1.551,1.551,0,0,0-.969,1.484,1.607,1.607,0,0,0,.281.969,2.813,2.813,0,0,0,1.016.75,13.93,13.93,0,0,0,1.984.766c.844.262,1.883.539,3.125.828a56.9,56.9,0,0,1,7.281,2.266,19.026,19.026,0,0,1,4.719,2.594,8.176,8.176,0,0,1,2.516,3.172,10.183,10.183,0,0,1,.766,4.063,11,11,0,0,1-4.437,9.234Q27.951.719,20.313.719Zm0,0" fill="#fff"/></g><g transform="translate(245.37 212.561)"><path d="M30.031-2.094A40.791,40.791,0,0,1,23.875-.031,26.324,26.324,0,0,1,17.438.8,16.574,16.574,0,0,1,13.031.219,9.586,9.586,0,0,1,9.391-1.656,8.97,8.97,0,0,1,6.938-5.031a13.317,13.317,0,0,1-.891-5.2V-27.594H1.375v-10.3H6.047V-49.781H19.734v11.891h7.422v10.3H19.734v12.547a3.539,3.539,0,0,0,.8,2.625,3.019,3.019,0,0,0,2.156.75A9.88,9.88,0,0,0,25-11.984a16.021,16.021,0,0,0,2.594-.906Zm0,0" fill="#fff"/></g><g transform="translate(275.909 212.561)"><path d="M29.172-26.219a27.721,27.721,0,0,0-7.2.875,8.808,8.808,0,0,0-4.828,2.875V0H3.453V-37.891H15.984v7.2A16.08,16.08,0,0,1,21-36.547a11.1,11.1,0,0,1,6.438-2.062,11.4,11.4,0,0,1,1.734.078Zm0,0" fill="#fff"/></g><g transform="translate(305.944 212.561)"><path d="M22.109.719A23.206,23.206,0,0,1,13.141-.891,19.519,19.519,0,0,1,6.656-5.219,17.789,17.789,0,0,1,2.7-11.484a21.133,21.133,0,0,1-1.328-7.453A21.133,21.133,0,0,1,2.7-26.391a17.818,17.818,0,0,1,3.953-6.281,19.425,19.425,0,0,1,6.484-4.312,22.985,22.985,0,0,1,8.969-1.625,23.057,23.057,0,0,1,8.938,1.625,19.176,19.176,0,0,1,6.516,4.313,17.873,17.873,0,0,1,3.953,6.281,20.97,20.97,0,0,1,1.344,7.453,20.97,20.97,0,0,1-1.344,7.453,17.844,17.844,0,0,1-3.953,6.266A19.267,19.267,0,0,1,31.047-.891,23.279,23.279,0,0,1,22.109.719ZM15.422-18.937a8.83,8.83,0,0,0,1.859,5.969,6.105,6.105,0,0,0,4.828,2.156,6.105,6.105,0,0,0,4.828-2.156,8.794,8.794,0,0,0,1.875-5.969,8.824,8.824,0,0,0-1.875-5.984,6.105,6.105,0,0,0-4.828-2.156,6.1,6.1,0,0,0-4.828,2.156A8.86,8.86,0,0,0,15.422-18.937Zm0,0" fill="#fff"/></g></g></svg>