<svg xmlns="http://www.w3.org/2000/svg" width="555" height="450.056" viewBox="0 0 555 450.056"><defs><style>.a{fill:#fff;}</style></defs><g transform="translate(-2915 -2382.472)"><path class="a" d="M261.488,86.754l17.444-17.092c34.253-33.57,90.033-34.4,124.483-1.028a84.925,84.925,0,0,1,17.156,99.007,40.711,40.711,0,0,0,8.036,47.38,118.892,118.892,0,0,0-.248-170.6C380.186-2.535,301.974-1.6,253.936,45.483L87.665,208.447l-13.674-13.4c-34.848-34.145-35.065-89.951.394-123.487,27.459-25.974,68.051-30.936,100.538-14.887A40.178,40.178,0,0,0,220.83,49.7l.424-.415a1.363,1.363,0,0,0-.01-1.962C173.761,1.844,97.7,1.661,50,46.8.4,93.723.57,171.767,49.329,219.548L215.565,382.463,197.9,399.772c-34.258,33.575-90.033,34.4-124.483,1.027a84.909,84.909,0,0,1-17.157-99,40.708,40.708,0,0,0-8.041-47.376A118.864,118.864,0,0,0,48.456,425c48.174,46.955,126.38,46.021,174.423-1.058l166.5-163.182L403.1,274.208c34.258,33.575,35.1,88.237,1.045,122-27.181,26.942-68.117,32.553-101.022,16.81a42.812,42.812,0,0,0-48.34,7.884c48.012,47.053,126.169,46.97,174.075-.248s46.952-123.857-1.085-170.935Zm-21.1,271.361-127.9-125.336,8.235-8.07L236.664,111.1,364.553,236.432Zm0,0" transform="translate(2957.88 2372.787)"/><g transform="translate(2922 2545)"><rect width="555" height="126" transform="translate(-7)"/><g transform="translate(12 20.337)"><g transform="translate(0)"><path class="a" d="M3.234-52.578H24.862V5.244q0,6.814,5.58,6.814a10.993,10.993,0,0,0,2.963-.444,12.973,12.973,0,0,0,2.963-1.259l2.741,17.406A39.024,39.024,0,0,1,30.393,30.6a43.826,43.826,0,0,1-9.16,1.037q-8.666,0-13.332-4.419Q3.234,22.773,3.234,14.33Zm0,0" transform="translate(-3.234 52.578)"/></g><g transform="translate(41.375 22.072)"><g transform="translate(0)"><path class="a" d="M34.138,23.533a37.651,37.651,0,0,1-14-2.444,29.587,29.587,0,0,1-10.3-6.641A28.875,28.875,0,0,1,3.523,4.77,31.242,31.242,0,0,1,1.375-6.736a35.837,35.837,0,0,1,2.1-12.3A28.361,28.361,0,0,1,9.72-29.153a30.137,30.137,0,0,1,10.246-6.888,36.318,36.318,0,0,1,14.172-2.568A36.433,36.433,0,0,1,48.26-36.042a30.3,30.3,0,0,1,10.3,6.814A28.242,28.242,0,0,1,64.8-19.3,33.135,33.135,0,0,1,66.925-7.526c0,1.136-.062,2.3-.173,3.481s-.247,2.21-.4,3.111h-42q.342,4.8,3.531,6.888a12.332,12.332,0,0,0,6.938,2.1,14.443,14.443,0,0,0,6.641-1.58,8.108,8.108,0,0,0,4.172-4.444L63.962,7.263A28.869,28.869,0,0,1,52.753,18.991Q45.171,23.537,34.138,23.533ZM43.717-13.92a11.211,11.211,0,0,0-3.21-6.814,9.3,9.3,0,0,0-6.715-2.518,9.276,9.276,0,0,0-6.715,2.518,11.057,11.057,0,0,0-3.185,6.814Zm0,0" transform="translate(-1.375 38.609)"/></g></g><g transform="translate(112.619 22.072)"><g transform="translate(0)"><path class="a" d="M22.311,23.533a23.093,23.093,0,0,1-8.32-1.481A20.79,20.79,0,0,1,7.35,18.028a18.568,18.568,0,0,1-4.395-6.1A18.413,18.413,0,0,1,1.375,4.3,17.924,17.924,0,0,1,3.3-4a19.678,19.678,0,0,1,5.333-6.493,24.749,24.749,0,0,1,8.147-4.222A34.778,34.778,0,0,1,27.2-16.192,28.224,28.224,0,0,1,39.273-13.92v-1.8q0-4.222-2.469-6.271-2.444-2.046-7.9-2.049a26.446,26.446,0,0,0-9.456,1.654,46.346,46.346,0,0,0-9.086,4.839L4.091-30.98a48.759,48.759,0,0,1,26.985-7.629q14.341,0,22.072,6.37Q60.9-25.87,60.9-13.105V-1.5q0,3.065,1.136,4.271c.753.79,2.123,1.259,4.1,1.407V22.4c-1.975.377-3.839.654-5.58.839a42.016,42.016,0,0,1-4.666.3q-5.805,0-8.839-2.1a9.757,9.757,0,0,1-3.926-6.2l-.444-2.173a27.711,27.711,0,0,1-9.209,7.8A24.256,24.256,0,0,1,22.311,23.533ZM28.8,8.053a13.705,13.705,0,0,0,3.975-.617,14.852,14.852,0,0,0,3.629-1.654,9.041,9.041,0,0,0,2.049-2,3.662,3.662,0,0,0,.815-2.222V-2.859A30.445,30.445,0,0,0,35.051-4a20.812,20.812,0,0,0-4.1-.469,10.738,10.738,0,0,0-6.592,1.95,5.837,5.837,0,0,0-2.617,4.888,5.031,5.031,0,0,0,1.975,4.1A7.933,7.933,0,0,0,28.8,8.053Zm0,0" transform="translate(-1.375 38.609)"/></g></g><g transform="translate(184.652)"><g transform="translate(0)"><path class="a" d="M29.657,31.637A27.889,27.889,0,0,1,18.35,29.365a25.909,25.909,0,0,1-8.937-6.419,30.278,30.278,0,0,1-5.876-9.9A36.42,36.42,0,0,1,1.438.454,37.989,37.989,0,0,1,3.363-11.816,30.6,30.6,0,0,1,8.77-21.667a24.83,24.83,0,0,1,8.246-6.493,23.821,23.821,0,0,1,10.616-2.346,21.923,21.923,0,0,1,10.616,2.617,18.221,18.221,0,0,1,7.456,7.407v-32.1H67.333V6.6q0,3.065,1.136,4.271,1.157,1.185,4.1,1.407V30.5q-3.287.565-5.8.839a38,38,0,0,1-4.419.3q-11.064,0-12.764-8.3l-.444-2.173a18.863,18.863,0,0,1-8.32,7.975A25.662,25.662,0,0,1,29.657,31.637Zm5.925-18.221q5.925,0,10.246-6.123V-3.422a15.173,15.173,0,0,0-4.666-6.419,10.256,10.256,0,0,0-6.493-2.444,9.352,9.352,0,0,0-4.37,1.037,10.178,10.178,0,0,0-3.432,2.839,15.1,15.1,0,0,0-2.271,4.2A15.305,15.305,0,0,0,23.757.9a12.669,12.669,0,0,0,3.234,9.11A11.343,11.343,0,0,0,35.583,13.416Zm0,0" transform="translate(-1.438 52.578)"/></g></g><g transform="translate(266.745)"><g transform="translate(0)"><path class="a" d="M3.453,30.5V-29.37H25.081V30.5Zm0-64.883v-18.2H25.081v18.2Zm0,0" transform="translate(-3.453 52.578)"/></g></g><g transform="translate(296.685 21.949)"><g transform="translate(0)"><path class="a" d="M31.806,23.579a62.437,62.437,0,0,1-8.073-.568c-2.882-.383-5.716-.87-8.493-1.481a74.315,74.315,0,0,1-8.024-2.222A41.282,41.282,0,0,1,.5,16.419L8.82,1.729A65.913,65.913,0,0,0,20.745,6.741a37.225,37.225,0,0,0,10.616,1.7q5.675,0,5.678-2.839,0-1.481-2.271-2.617A50.273,50.273,0,0,0,26.127.247,99.43,99.43,0,0,1,15.412-3.16a26.663,26.663,0,0,1-6.938-3.8,12.7,12.7,0,0,1-3.753-4.666,14.676,14.676,0,0,1-1.136-6,19.056,19.056,0,0,1,1.876-8.419,20.033,20.033,0,0,1,5.283-6.715,24.308,24.308,0,0,1,8.123-4.37,32.916,32.916,0,0,1,10.32-1.555A53.434,53.434,0,0,1,42.1-36.959a80.625,80.625,0,0,1,14.073,4.987L47.854-18.2a88.858,88.858,0,0,0-10.592-4.271,27.2,27.2,0,0,0-8.073-1.308,9.455,9.455,0,0,0-4.049.741,2.45,2.45,0,0,0-1.531,2.346,2.539,2.539,0,0,0,.444,1.531,4.444,4.444,0,0,0,1.6,1.185,22.012,22.012,0,0,0,3.136,1.21c1.333.414,2.975.852,4.938,1.308a89.915,89.915,0,0,1,11.505,3.58,30.063,30.063,0,0,1,7.456,4.1,12.919,12.919,0,0,1,3.975,5.012,16.091,16.091,0,0,1,1.21,6.419,17.374,17.374,0,0,1-7.012,14.591Q43.876,23.579,31.806,23.579Zm0,0" transform="translate(-0.5 38.688)"/></g></g><g transform="translate(360.345 4.419)"><g transform="translate(0)"><path class="a" d="M46.655,25.57a64.454,64.454,0,0,1-9.728,3.259,41.594,41.594,0,0,1-10.172,1.309,26.189,26.189,0,0,1-6.962-.914,15.146,15.146,0,0,1-5.753-2.963,14.173,14.173,0,0,1-3.876-5.333,21.042,21.042,0,0,1-1.407-8.222v-27.43H1.375v-16.27H8.757V-49.781H30.385v18.789H42.112v16.27H30.385V5.1q0,2.944,1.259,4.148a4.77,4.77,0,0,0,3.407,1.185,15.611,15.611,0,0,0,3.654-.494A25.315,25.315,0,0,0,42.8,8.51Zm0,0" transform="translate(-1.375 49.781)"/></g></g><g transform="translate(416.851 22.072)"><g transform="translate(0)"><path class="a" d="M44.092-19.031A43.8,43.8,0,0,0,32.71-17.648a13.918,13.918,0,0,0-7.629,4.543V22.4H3.453V-37.474h19.8v11.382a25.409,25.409,0,0,1,7.925-9.259,17.532,17.532,0,0,1,10.172-3.259,18.019,18.019,0,0,1,2.741.123Zm0,0" transform="translate(-3.453 38.609)"/></g></g><g transform="translate(461.026 22.072)"><g transform="translate(0)"><path class="a" d="M34.138,23.533A36.667,36.667,0,0,1,19.966,20.99,30.843,30.843,0,0,1,9.72,14.152a28.109,28.109,0,0,1-6.246-9.9,33.393,33.393,0,0,1-2.1-11.777A33.392,33.392,0,0,1,3.474-19.3,28.155,28.155,0,0,1,9.72-29.227a30.694,30.694,0,0,1,10.246-6.814,36.318,36.318,0,0,1,14.172-2.568A36.433,36.433,0,0,1,48.26-36.042a30.3,30.3,0,0,1,10.3,6.814A28.242,28.242,0,0,1,64.8-19.3,33.135,33.135,0,0,1,66.925-7.526,33.135,33.135,0,0,1,64.8,4.251a28.2,28.2,0,0,1-6.246,9.9,30.444,30.444,0,0,1-10.3,6.839A36.783,36.783,0,0,1,34.138,23.533ZM23.571-7.526q0,6.027,2.938,9.431a9.647,9.647,0,0,0,7.629,3.407,9.647,9.647,0,0,0,7.629-3.407Q44.729-1.5,44.729-7.526q0-6.046-2.963-9.456a9.647,9.647,0,0,0-7.629-3.407,9.646,9.646,0,0,0-7.629,3.407Q23.564-13.575,23.571-7.526Zm0,0" transform="translate(-1.375 38.609)"/></g></g></g></g></g></svg>