<svg xmlns="http://www.w3.org/2000/svg" viewBox="0 0 250 250"><defs><style>.cls-1{fill:#fff;}</style></defs><g id="Layer_2" data-name="Layer 2"><g id="Layer_1-2" data-name="Layer 1"><path d="M85.22,43.35V55.87H97.75l0-12.55ZM192.7,152.25v12.52l12.52,0,0-12.53ZM.27.27.22,43.45l85-.1L85.27.2ZM.2,56,0,241.15l85.07-85.1.15-100.18ZM97.8.18l0,43.14,107.6-.12-.12,109,44.55-.05L250,0Zm0,55.69-.1,96.51,95-.13.13-96.5ZM140.2,113.1l-1.85-1.88-.33-.3-.3-.32-1.87-1.85-.82-.83-4.38-4.37L138,96.22l1.74-1.75.8-.8,4.15-4.15,4.38,4.38.83.82,1.87,1.88.3.3.33.32,1.85,1.86,5.19,5.19-4.15,4.15-.8.81L152.72,111l-.3.31-.3.3-1.77,1.77-.8.8-4.15,4.15Zm10.7-9-3-3-.33-.3-1.85-1.88-.82-.82-.8.8-1.75,1.75-.33.3-.29.3L140,103l-.8.8.83.82,1.88,1.85.29.32,3,3,.79-.8,1.78-1.75.3-.3.3-.32,1.77-1.75Zm54.32,60.7-.1,85,44.58-.05.1-85ZM94,164.9,8.85,250l183.72-.23.13-85Z"/><path d="M154.23,99.08l-1.85-1.86-.33-.32-.3-.3-1.87-1.88-.83-.82-4.38-4.38-4.15,4.15-.8.8L138,96.22l-7.33,7.33,4.38,4.37.82.83,1.87,1.85.3.32.33.3,1.85,1.88,5.2,5.2,4.15-4.15.8-.8,1.77-1.77.3-.3.3-.31,1.75-1.74.8-.81,4.15-4.15Zm-4.11,5.77-1.77,1.75-.3.32-.3.3L146,109l-.79.8-3-3-.29-.32L140,104.6l-.83-.82.8-.8,1.76-1.78.29-.3.33-.3,1.75-1.75.8-.8.82.82,1.85,1.88.33.3,3,3Z"/><polygon class="cls-1" points="147.98 71.78 148.27 83.32 148.27 83.55 148.13 83.7 145.52 86.31 144.59 87.2 139.78 92.02 138.85 92.94 136.82 94.97 136.13 95.67 135.78 95.32 135.52 95.09 135.17 94.71 146.91 82.97 146.62 71.41 146.62 71.2 156.88 60.94 157.23 61.32 157.49 61.55 157.84 61.93 147.98 71.78"/><polygon class="cls-1" points="145.81 98.04 142.85 101 142.5 101.38 142.16 101.72 141.78 101.35 141.55 101.12 141.17 100.74 141.52 100.39 141.89 100.04 143.92 98.02 144.85 97.09 145.81 98.04"/><polygon class="cls-1" points="170.59 61.2 170.24 61.55 169.98 61.81 153.98 77.81 154.1 82.45 154.13 83.78 154.27 89.38 154.27 89.58 150.62 93.23 149.66 92.28 152.94 89 152.65 77.47 152.65 77.23 152.79 77.09 169.02 60.86 169.28 60.6 169.63 60.25 169.98 60.63 170.21 60.86 170.59 61.2"/><path class="cls-1" d="M153,83.26v.49l.5,0,6.62.16h.21l.14-.15L181.9,62.33l.35-.34-.37-.37-.24-.24-.36-.36-.35.35L159.72,82.59l-6.28-.16h-.5v.84Z"/><polygon class="cls-1" points="187.95 92.02 187.6 92.36 187.54 92.42 187.46 92.54 187.4 92.57 177.84 102.13 177.69 102.28 177.49 102.28 165.92 101.99 162.65 105.26 157.84 110.07 156.91 111 154.18 113.72 153.81 113.38 153.57 113.14 153.23 112.77 153.57 112.42 153.92 112.07 155.95 110.04 156.88 109.12 161.69 104.31 162.62 103.38 165.2 100.77 165.34 100.62 165.57 100.65 177.11 100.91 186.41 91.61 186.47 91.55 186.5 91.52 186.62 91.41 186.97 91.06 187.34 91.41 187.57 91.67 187.95 92.02"/><polygon class="cls-1" points="151.81 104.04 150.91 104.97 148.85 107 148.5 107.38 148.16 107.72 147.78 107.35 147.55 107.12 147.17 106.77 147.89 106.04 149.92 104.02 150.85 103.09 151.81 104.04"/><polygon class="cls-1" points="188.65 79.26 188.3 79.61 188.04 79.87 171.81 96.1 171.66 96.25 171.43 96.25 159.89 95.96 156.62 99.23 155.66 98.28 156.59 97.35 159.17 94.77 159.31 94.62 159.52 94.62 165.11 94.77 166.44 94.8 171.08 94.91 187.69 78.31 188.04 78.68 188.27 78.92 188.65 79.26"/><path class="cls-1" d="M165.13,95.43v.49H166l.5,0v-.51l-.15-6.27L187.52,68l.35-.35-.36-.36-.24-.24-.36-.36-.35.34L165.1,88.45l-.14.15v.21Z"/><path class="cls-1" d="M157.44,62.53h0a1.11,1.11,0,0,0,1.14-1.13h0a1.25,1.25,0,0,0-.36-.82,1.21,1.21,0,0,0-.83-.36h0a1.11,1.11,0,0,0-1.14,1.13h0a1.24,1.24,0,0,0,.36.83A1.21,1.21,0,0,0,157.44,62.53Z"/><path class="cls-1" d="M181.83,62.62h0A1.11,1.11,0,0,0,183,61.49h0a1.23,1.23,0,0,0-1.18-1.19h0a1.07,1.07,0,0,0-.81.32,1.09,1.09,0,0,0-.33.81h0a1.25,1.25,0,0,0,.36.82A1.21,1.21,0,0,0,181.83,62.62Z"/><path class="cls-1" d="M187.46,68.25h0a1.09,1.09,0,0,0,.81-.33,1.11,1.11,0,0,0,.32-.81h0a1.21,1.21,0,0,0-.36-.83,1.18,1.18,0,0,0-.82-.35,1,1,0,0,0-.82.32,1.12,1.12,0,0,0-.33.82,1.23,1.23,0,0,0,.36.83A1.26,1.26,0,0,0,187.46,68.25Z"/><path class="cls-1" d="M170,61.83a1.19,1.19,0,0,0,1.14-.32,1.27,1.27,0,0,0-1.79-1.79,1.19,1.19,0,0,0-.31,1.14,1.34,1.34,0,0,0,1,1Zm.17-1.23a.13.13,0,0,1,0-.05.1.1,0,0,1,.12,0,.09.09,0,0,1,0,.11.07.07,0,0,1-.11,0A.06.06,0,0,1,170.15,60.6Z"/><path class="cls-1" d="M188,79.88a1.21,1.21,0,0,0,1.15-.31,1.28,1.28,0,0,0-1.81-1.81,1.2,1.2,0,0,0-.3,1.16,1.38,1.38,0,0,0,.35.61A1.31,1.31,0,0,0,188,79.88Zm.18-1.28a.14.14,0,0,1,.12,0,.07.07,0,0,1-.1.1S188.18,78.64,188.21,78.6Z"/><path class="cls-1" d="M188.36,92.31a1.1,1.1,0,0,0,.34-.82,1.25,1.25,0,0,0-.37-.83,1.2,1.2,0,0,0-.83-.37v0a1.13,1.13,0,0,0-.82.31,1.18,1.18,0,0,0-.31.82l1.19,1.19A1,1,0,0,0,188.36,92.31Zm-1,.27a.32.32,0,0,0,.18,0l-1.19-1.19c0,.06,0,.15,0,.18a1,1,0,0,0,.31.65A1,1,0,0,0,187.37,92.58Zm.18-.18v-.27l-1-.61-.15-.08,1.19,1.19Z"/><polygon class="cls-1" points="154.88 113.03 146.39 121.52 145.49 122.45 143.11 124.8 143.4 136.33 143.43 136.53 143.28 136.68 133.17 146.8 132.82 146.42 132.56 146.19 132.21 145.84 132.79 145.26 142.07 135.96 141.78 124.42 141.78 124.22 141.92 124.07 144.53 121.49 145.43 120.56 150.24 115.75 151.17 114.83 153.23 112.77 153.57 112.42 153.92 112.07 154.27 112.45 154.5 112.68 154.88 113.03"/><polygon class="cls-1" points="139.46 116.42 137.11 118.77 137.4 130.3 137.4 130.51 121.03 146.88 121.03 146.91 120.42 147.52 120.04 147.14 119.81 146.91 119.46 146.53 136.04 129.96 135.92 125.29 135.89 123.96 135.75 118.39 135.75 118.19 135.89 118.04 138.5 115.46 139.4 114.54 140.36 115.49 139.46 116.42"/><polygon class="cls-1" points="148.85 107 148.5 107.38 148.16 107.72 146.1 109.75 145.17 110.68 144.21 109.72 145.14 108.8 147.89 106.04 148.24 106.42 148.47 106.65 148.85 107"/><path class="cls-1" d="M137.08,124.49V124h-.5l-6.62-.17h-.21l-.14.14-21.46,21.46-.34.35.36.36.24.24.36.36.35-.35,21.21-21.21,6.27.15h.51v-.84Z"/><polygon class="cls-1" points="136.82 94.97 128.33 103.46 127.43 104.39 124.82 106.97 124.68 107.12 124.47 107.12 112.94 106.83 103.08 116.68 102.71 116.33 102.1 115.72 102.65 115.17 112.21 105.61 112.36 105.46 112.56 105.49 124.1 105.78 126.47 103.44 127.37 102.51 135.87 94.02 136.21 94.39 136.47 94.62 136.82 94.97"/><polygon class="cls-1" points="134.36 109.49 133.46 110.42 130.85 113 130.71 113.14 130.5 113.14 124.94 113 123.61 112.97 118.97 112.86 102.97 128.85 102.71 129.12 102.36 129.46 101.98 129.09 101.75 128.85 101.4 128.48 118.39 111.49 118.59 111.52 130.13 111.78 132.47 109.44 133.4 108.54 134.36 109.49"/><polygon class="cls-1" points="142.85 101 142.5 101.38 142.16 101.72 140.1 103.75 139.17 104.68 138.21 103.72 139.14 102.8 141.17 100.74 141.52 100.39 141.89 100.04 142.24 100.42 142.47 100.65 142.85 101"/><path class="cls-1" d="M124.91,112.33v-.5h-1.34v.5l.17,6.28-21.22,21.21-.35.35.36.36.24.24.36.36.35-.35,21.46-21.45.14-.15v-.21Z"/><path class="cls-1" d="M132.59,145.22a1.12,1.12,0,0,0-.82.33,1.07,1.07,0,0,0-.32.81,1.16,1.16,0,0,0,.36.83,1.13,1.13,0,0,0,.82.36,1.1,1.1,0,0,0,1.14-1.14,1.25,1.25,0,0,0-1.18-1.19Z"/><path class="cls-1" d="M109.37,146.34a1.17,1.17,0,0,0-.36-.83,1.19,1.19,0,0,0-.82-.36,1.06,1.06,0,0,0-.82.33,1,1,0,0,0-.32.81,1.12,1.12,0,0,0,.36.83,1.16,1.16,0,0,0,.83.36,1.07,1.07,0,0,0,.81-.32A1.09,1.09,0,0,0,109.37,146.34Z"/><path class="cls-1" d="M103.75,140.72a1.23,1.23,0,0,0-1.18-1.19h0a1.14,1.14,0,0,0-.82.33,1.07,1.07,0,0,0-.32.81,1.2,1.2,0,0,0,.36.83,1.17,1.17,0,0,0,.83.36,1.08,1.08,0,0,0,1.14-1.13Z"/><path class="cls-1" d="M120.71,148a1.19,1.19,0,0,0,.32-1.15,1.31,1.31,0,0,0-.35-.61,1.52,1.52,0,0,0-.62-.35,1.23,1.23,0,0,0-1.16.3,1.27,1.27,0,0,0,0,1.78A1.25,1.25,0,0,0,120.71,148Zm-1-1s.08,0,.12,0,0,.07,0,.1a.07.07,0,0,1-.1,0C119.72,147.14,119.73,147.09,119.75,147.08Z"/><path class="cls-1" d="M102.66,130a1.27,1.27,0,0,0-1.79-1.79,1.27,1.27,0,0,0,1.79,1.79Zm-1-1s.08,0,.11,0a.07.07,0,0,1,0,.11.11.11,0,0,1-.12,0S101.66,129.06,101.7,129Z"/><path class="cls-1" d="M102.49,115.12a1.12,1.12,0,0,0-.82.33,1.06,1.06,0,0,0-.32.81,1.16,1.16,0,0,0,.36.83,1.13,1.13,0,0,0,.83.36,1.06,1.06,0,0,0,.81-.32,1.09,1.09,0,0,0,.33-.82h0a1.25,1.25,0,0,0-1.19-1.18Z"/><polygon class="cls-1" points="147.98 71.78 148.27 83.32 148.27 83.55 148.13 83.7 145.52 86.31 144.59 87.2 139.78 92.02 138.85 92.94 136.82 94.97 136.13 95.67 135.78 95.32 135.52 95.09 135.17 94.71 146.91 82.97 146.62 71.41 146.62 71.2 156.88 60.94 157.23 61.32 157.49 61.55 157.84 61.93 147.98 71.78"/><polygon class="cls-1" points="145.81 98.04 142.85 101 142.5 101.38 142.16 101.72 141.78 101.35 141.55 101.12 141.17 100.74 141.52 100.39 141.89 100.04 143.92 98.02 144.85 97.09 145.81 98.04"/><polygon class="cls-1" points="170.59 61.2 170.24 61.55 169.98 61.81 153.98 77.81 154.1 82.45 154.13 83.78 154.27 89.38 154.27 89.58 150.62 93.23 149.66 92.28 152.94 89 152.65 77.47 152.65 77.23 152.79 77.09 169.02 60.86 169.28 60.6 169.63 60.25 169.98 60.63 170.21 60.86 170.59 61.2"/><path class="cls-1" d="M153,83.26v.49l.5,0,6.62.16h.21l.14-.15L181.9,62.33l.35-.34-.37-.37-.24-.24-.36-.36-.35.35L159.72,82.59l-6.28-.16h-.5v.84Z"/><polygon class="cls-1" points="187.95 92.02 187.6 92.36 187.54 92.42 187.46 92.54 187.4 92.57 177.84 102.13 177.69 102.28 177.49 102.28 165.92 101.99 162.65 105.26 157.84 110.07 156.91 111 154.18 113.72 153.81 113.38 153.57 113.14 153.23 112.77 153.57 112.42 153.92 112.07 155.95 110.04 156.88 109.12 161.69 104.31 162.62 103.38 165.2 100.77 165.34 100.62 165.57 100.65 177.11 100.91 186.41 91.61 186.47 91.55 186.5 91.52 186.62 91.41 186.97 91.06 187.34 91.41 187.57 91.67 187.95 92.02"/><polygon class="cls-1" points="151.81 104.04 150.91 104.97 148.85 107 148.5 107.38 148.16 107.72 147.78 107.35 147.55 107.12 147.17 106.77 147.89 106.04 149.92 104.02 150.85 103.09 151.81 104.04"/><polygon class="cls-1" points="188.65 79.26 188.3 79.61 188.04 79.87 171.81 96.1 171.66 96.25 171.43 96.25 159.89 95.96 156.62 99.23 155.66 98.28 156.59 97.35 159.17 94.77 159.31 94.62 159.52 94.62 165.11 94.77 166.44 94.8 171.08 94.91 187.69 78.31 188.04 78.68 188.27 78.92 188.65 79.26"/><path class="cls-1" d="M165.13,95.43v.49H166l.5,0v-.51l-.15-6.27L187.52,68l.35-.35-.36-.36-.24-.24-.36-.36-.35.34L165.1,88.45l-.14.15v.21Z"/><path class="cls-1" d="M157.44,62.53h0a1.11,1.11,0,0,0,1.14-1.13h0a1.25,1.25,0,0,0-.36-.82,1.21,1.21,0,0,0-.83-.36h0a1.11,1.11,0,0,0-1.14,1.13h0a1.24,1.24,0,0,0,.36.83A1.21,1.21,0,0,0,157.44,62.53Z"/><path class="cls-1" d="M181.83,62.62h0A1.11,1.11,0,0,0,183,61.49h0a1.23,1.23,0,0,0-1.18-1.19h0a1.07,1.07,0,0,0-.81.32,1.09,1.09,0,0,0-.33.81h0a1.25,1.25,0,0,0,.36.82A1.21,1.21,0,0,0,181.83,62.62Z"/><path class="cls-1" d="M187.46,68.25h0a1.09,1.09,0,0,0,.81-.33,1.11,1.11,0,0,0,.32-.81h0a1.21,1.21,0,0,0-.36-.83,1.18,1.18,0,0,0-.82-.35,1,1,0,0,0-.82.32,1.12,1.12,0,0,0-.33.82,1.23,1.23,0,0,0,.36.83A1.26,1.26,0,0,0,187.46,68.25Z"/><path class="cls-1" d="M170,61.83a1.19,1.19,0,0,0,1.14-.32,1.27,1.27,0,0,0-1.79-1.79,1.19,1.19,0,0,0-.31,1.14,1.34,1.34,0,0,0,1,1Zm.17-1.23a.13.13,0,0,1,0-.05.1.1,0,0,1,.12,0,.09.09,0,0,1,0,.11.07.07,0,0,1-.11,0A.06.06,0,0,1,170.15,60.6Z"/><path class="cls-1" d="M188,79.88a1.21,1.21,0,0,0,1.15-.31,1.28,1.28,0,0,0-1.81-1.81,1.2,1.2,0,0,0-.3,1.16,1.38,1.38,0,0,0,.35.61A1.31,1.31,0,0,0,188,79.88Zm.18-1.28a.14.14,0,0,1,.12,0,.07.07,0,0,1-.1.1S188.18,78.64,188.21,78.6Z"/><path class="cls-1" d="M188.36,92.31a1.1,1.1,0,0,0,.34-.82,1.25,1.25,0,0,0-.37-.83,1.2,1.2,0,0,0-.83-.37v0a1.13,1.13,0,0,0-.82.31,1.18,1.18,0,0,0-.31.82l1.19,1.19A1,1,0,0,0,188.36,92.31Zm-1,.27a.32.32,0,0,0,.18,0l-1.19-1.19c0,.06,0,.15,0,.18a1,1,0,0,0,.31.65A1,1,0,0,0,187.37,92.58Zm.18-.18v-.27l-1-.61-.15-.08,1.19,1.19Z"/><polygon class="cls-1" points="188.59 117.9 187.66 118.83 177.28 108.45 165.75 108.16 165.52 108.16 165.37 107.99 155.66 98.28 153.52 96.13 153.14 95.75 152.79 95.41 153.11 95.06 153.34 94.83 153.69 94.48 154.07 94.83 154.41 95.2 156.59 97.35 166.07 106.83 177.6 107.12 177.81 107.12 177.95 107.26 188.59 117.9"/><polygon class="cls-1" points="151.81 104.04 150.91 104.97 149.92 104.02 147.78 101.84 147.4 101.49 147.05 101.12 147.95 100.22 148.33 100.57 151.81 104.04"/><path class="cls-1" d="M189.92,130.71l-.09.09-.84.84-.11-.15a0,0,0,0,1,0,0l-.2-.2-17.11-17.07-4.6-.12-1.34,0L160,113.9h-.2l-.15-.18L156.91,111l-1-1,.93-.92,3.45,3.45,11.53.29h.21l.14.14,17.36,17.36.24.23Z"/><path class="cls-1" d="M166.06,112.87h-.5v.51l.17,6.61v.21l.15.15,22.56,22.56.36.36.35-.35.23-.23.35-.34-.37-.37-22.3-22.31-.16-6.27,0-.5h-.83Z"/><polygon class="cls-1" points="159.95 146.53 159.02 147.46 148.24 136.68 148.24 136.48 147.95 124.91 145.49 122.45 139.46 116.42 138.5 115.46 135.6 112.56 136.53 111.64 136.88 112.02 137.26 112.36 139.4 114.54 145.43 120.56 146.39 121.52 149.14 124.25 149.28 124.39 149.28 124.59 149.57 136.16 159.57 146.16 159.95 146.53"/><polygon class="cls-1" points="146.1 109.75 145.17 110.68 141.69 107.2 141.34 106.83 141.69 106.48 141.92 106.25 142.27 105.93 142.62 106.28 143 106.62 145.14 108.8 146.1 109.75"/><polygon class="cls-1" points="172.76 147.87 171.84 148.8 171.72 148.68 171.49 148.45 154.13 131.09 153.98 130.94 153.98 130.74 153.69 119.2 151.2 116.71 150.24 115.75 151.17 114.83 152.13 115.78 154.88 118.51 155.02 118.65 155.02 118.88 155.17 124.48 155.2 125.81 155.31 130.42 172.38 147.52 172.65 147.75 172.76 147.87"/><path class="cls-1" d="M154.49,124.44H154v1.34h.5l6.27.16,22.31,22.31.36.36.35-.35L184,148l.35-.35-.37-.36-22.55-22.56-.15-.15h-.21Z"/><path class="cls-1" d="M188.67,118.92a.56.56,0,0,1-.46.18.65.65,0,0,1-.47-.2.68.68,0,0,1-.21-.48.6.6,0,0,1,.18-.46.58.58,0,0,1,.46-.18.64.64,0,0,1,.48.21.63.63,0,0,1,.2.47A.56.56,0,0,1,188.67,118.92Z"/><path class="cls-1" d="M189.82,143.34a.66.66,0,0,1-.47.18.72.72,0,0,1-.68-.68.63.63,0,0,1,.18-.46.64.64,0,0,1,.47-.19.72.72,0,0,1,.68.68A.67.67,0,0,1,189.82,143.34Z"/><path class="cls-1" d="M184.46,148.69a.62.62,0,0,1-.46.19.72.72,0,0,1-.69-.68.63.63,0,0,1,.19-.47.56.56,0,0,1,.46-.18.68.68,0,0,1,.48.21.69.69,0,0,1,.2.47A.56.56,0,0,1,184.46,148.69Z"/><path class="cls-1" d="M190.12,131.84a.76.76,0,0,0,0-1.06.71.71,0,0,0-.28-.18.74.74,0,0,0-.78.15.72.72,0,0,0-.17.73.67.67,0,0,0,.2.33A.76.76,0,0,0,190.12,131.84Zm-1-1a.52.52,0,0,1,.68-.08.26.26,0,0,1,.13.1.56.56,0,0,1,0,.81.58.58,0,0,1-.81,0,.26.26,0,0,1-.1-.13A.54.54,0,0,1,189.16,130.88Z"/><path class="cls-1" d="M173,149a.75.75,0,0,0,0-1.06.71.71,0,0,0-.28-.18.71.71,0,0,0-.93.93.88.88,0,0,0,.18.28A.76.76,0,0,0,173,149Zm-1-1a.54.54,0,0,1,.68-.08.26.26,0,0,1,.13.1.56.56,0,0,1,0,.81.58.58,0,0,1-.81,0,.45.45,0,0,1-.1-.13A.56.56,0,0,1,172,148Z"/><path class="cls-1" d="M160.05,147.55a.63.63,0,0,1-.46.18.73.73,0,0,1-.48-.21.69.69,0,0,1-.2-.47.6.6,0,0,1,.18-.47.65.65,0,0,1,.46-.18.73.73,0,0,1,.48.21.65.65,0,0,1,.2.47A.6.6,0,0,1,160.05,147.55Z"/><polygon class="cls-1" points="137.26 112.36 136.33 113.29 133.46 110.42 132.47 109.44 123.98 100.94 112.42 100.65 112.21 100.65 101.81 90.25 101.46 89.87 102.39 88.94 102.74 89.32 112.74 99.32 124.3 99.61 124.5 99.61 124.65 99.75 127.37 102.51 133.4 108.54 134.36 109.49 136.53 111.64 136.88 112.02 137.26 112.36"/><polygon class="cls-1" points="134.07 97.72 133.14 98.65 132.18 97.7 129.72 95.2 118.16 94.91 117.95 94.91 117.81 94.77 100.47 77.44 100.1 77.06 101.03 76.13 118.47 93.58 123.08 93.7 124.42 93.73 130.04 93.87 130.24 93.87 130.39 94.04 134.07 97.72"/><polygon class="cls-1" points="143 106.62 142.65 106.97 142.42 107.2 142.07 107.55 141.69 107.2 141.34 106.83 139.17 104.68 138.21 103.72 139.14 102.8 140.1 103.75 142.62 106.28 143 106.62"/><path class="cls-1" d="M124,94.9h.51V94.4l-.17-6.61v-.21l-.14-.15L101.58,64.87l-.36-.36-.35.35-.23.22-.34.35.36.36L123,88.1l.15,6.28v.49l.5,0Z"/><polygon class="cls-1" points="154.41 95.2 154.07 95.55 153.84 95.78 153.52 96.13 153.14 95.75 152.79 95.41 150.62 93.23 149.66 92.28 140.76 83.38 140.74 83.17 140.44 71.61 130.44 61.61 130.1 61.23 130.44 60.89 130.65 60.65 131 60.31 131.37 60.68 141.63 70.94 141.78 71.09 141.78 71.29 142.07 82.86 144.56 85.32 145.52 86.31 150.59 91.35 151.55 92.31 153.69 94.48 154.07 94.83 154.41 95.2"/><polygon class="cls-1" points="138.82 91.06 139.78 92.02 138.85 92.94 137.89 91.99 135.17 89.26 135.03 89.09 135.03 88.89 134.88 83.29 134.85 81.96 134.74 77.35 117.63 60.25 117.26 59.9 117.84 59.32 118.19 58.97 118.56 59.32 135.89 76.68 136.04 76.83 136.04 77.03 136.33 88.57 138.82 91.06"/><polygon class="cls-1" points="148.68 100.91 148.36 101.26 147.78 101.84 147.4 101.49 143.92 98.02 144.85 97.09 145.81 98.04 147.95 100.22 148.33 100.57 148.68 100.91"/><path class="cls-1" d="M135.53,83.32l.51,0V82h-.5l-6.27-.16L106.93,59.52l-.36-.36-.35.35-.23.23-.35.34.37.36L128.56,83l.15.15h.21Z"/><polygon class="cls-1" points="188.59 117.9 187.66 118.83 177.28 108.45 165.75 108.16 165.52 108.16 165.37 107.99 155.66 98.28 153.52 96.13 153.14 95.75 152.79 95.41 153.11 95.06 153.34 94.83 153.69 94.48 154.07 94.83 154.41 95.2 156.59 97.35 166.07 106.83 177.6 107.12 177.81 107.12 177.95 107.26 188.59 117.9"/><polygon class="cls-1" points="151.81 104.04 150.91 104.97 149.92 104.02 147.78 101.84 147.4 101.49 147.05 101.12 147.95 100.22 148.33 100.57 151.81 104.04"/><path class="cls-1" d="M189.92,130.71l-.09.09-.84.84-.11-.15a0,0,0,0,1,0,0l-.2-.2-17.11-17.07-4.6-.12-1.34,0L160,113.9h-.2l-.15-.18L156.91,111l-1-1,.93-.92,3.45,3.45,11.53.29h.21l.14.14,17.36,17.36.24.23Z"/><path class="cls-1" d="M166.06,112.87h-.5v.51l.17,6.61v.21l.15.15,22.56,22.56.36.36.35-.35.23-.23.35-.34-.37-.37-22.3-22.31-.16-6.27,0-.5h-.83Z"/><polygon class="cls-1" points="159.95 146.53 159.02 147.46 148.24 136.68 148.24 136.48 147.95 124.91 145.49 122.45 139.46 116.42 138.5 115.46 135.6 112.56 136.53 111.64 136.88 112.02 137.26 112.36 139.4 114.54 145.43 120.56 146.39 121.52 149.14 124.25 149.28 124.39 149.28 124.59 149.57 136.16 159.57 146.16 159.95 146.53"/><polygon class="cls-1" points="146.1 109.75 145.17 110.68 141.69 107.2 141.34 106.83 141.69 106.48 141.92 106.25 142.27 105.93 142.62 106.28 143 106.62 145.14 108.8 146.1 109.75"/><polygon class="cls-1" points="172.76 147.87 171.84 148.8 171.72 148.68 171.49 148.45 154.13 131.09 153.98 130.94 153.98 130.74 153.69 119.2 151.2 116.71 150.24 115.75 151.17 114.83 152.13 115.78 154.88 118.51 155.02 118.65 155.02 118.88 155.17 124.48 155.2 125.81 155.31 130.42 172.38 147.52 172.65 147.75 172.76 147.87"/><path class="cls-1" d="M154.49,124.44H154v1.34h.5l6.27.16,22.31,22.31.36.36.35-.35L184,148l.35-.35-.37-.36-22.55-22.56-.15-.15h-.21Z"/><path class="cls-1" d="M188.67,118.92a.56.56,0,0,1-.46.18.65.65,0,0,1-.47-.2.68.68,0,0,1-.21-.48.6.6,0,0,1,.18-.46.58.58,0,0,1,.46-.18.64.64,0,0,1,.48.21.63.63,0,0,1,.2.47A.56.56,0,0,1,188.67,118.92Z"/><path class="cls-1" d="M189.82,143.34a.66.66,0,0,1-.47.18.72.72,0,0,1-.68-.68.63.63,0,0,1,.18-.46.64.64,0,0,1,.47-.19.72.72,0,0,1,.68.68A.67.67,0,0,1,189.82,143.34Z"/><path class="cls-1" d="M184.46,148.69a.62.62,0,0,1-.46.19.72.72,0,0,1-.69-.68.63.63,0,0,1,.19-.47.56.56,0,0,1,.46-.18.68.68,0,0,1,.48.21.69.69,0,0,1,.2.47A.56.56,0,0,1,184.46,148.69Z"/><path class="cls-1" d="M190.12,131.84a.76.76,0,0,0,0-1.06.71.71,0,0,0-.28-.18.74.74,0,0,0-.78.15.72.72,0,0,0-.17.73.67.67,0,0,0,.2.33A.76.76,0,0,0,190.12,131.84Zm-1-1a.52.52,0,0,1,.68-.08.26.26,0,0,1,.13.1.56.56,0,0,1,0,.81.58.58,0,0,1-.81,0,.26.26,0,0,1-.1-.13A.54.54,0,0,1,189.16,130.88Z"/><path class="cls-1" d="M173,149a.75.75,0,0,0,0-1.06.71.71,0,0,0-.28-.18.71.71,0,0,0-.93.93.88.88,0,0,0,.18.28A.76.76,0,0,0,173,149Zm-1-1a.54.54,0,0,1,.68-.08.26.26,0,0,1,.13.1.56.56,0,0,1,0,.81.58.58,0,0,1-.81,0,.45.45,0,0,1-.1-.13A.56.56,0,0,1,172,148Z"/><path class="cls-1" d="M160.05,147.55a.63.63,0,0,1-.46.18.73.73,0,0,1-.48-.21.69.69,0,0,1-.2-.47.6.6,0,0,1,.18-.47.65.65,0,0,1,.46-.18.73.73,0,0,1,.48.21.65.65,0,0,1,.2.47A.6.6,0,0,1,160.05,147.55Z"/></g></g></svg>