<svg width="432" height="318" viewBox="0 0 432 318" fill="none" xmlns="http://www.w3.org/2000/svg">
<path d="M196.113 281.079L159.254 317.853L0 158.978L159.254 0.10791L196.147 36.9099L188.876 44.1582L159.254 14.6046L14.5363 158.978L159.254 303.356L188.848 273.831L196.113 281.079ZM313.371 164.104L223.052 254.208L272.297 303.356L411.883 164.104H313.371ZM215.787 71.0015L127.59 158.978L215.787 246.959L303.978 158.978L215.787 71.0015ZM272.297 14.6046L223.035 63.7475L313.354 153.857H411.866L272.297 14.6046Z" fill="white"/>
<path d="M216.678 171.651V171.151H216.178H199.451H199.242L199.096 171.299L191.008 179.475H177.332H176.832V179.975V180.307V180.807H177.332H191.353H191.562L191.709 180.659L199.791 172.483H216.178H216.678V171.983V171.651Z" fill="black" stroke="black"/>
<path d="M216.695 163.327V162.827H216.195H199.468H199.259L199.113 162.976L191.025 171.151H167.668H167.168V171.651V171.983V172.483H167.668H191.37H191.579L191.726 172.335L199.808 164.159H216.195H216.695V163.659V163.327Z" fill="black" stroke="black"/>
<path d="M195.666 168.107L196.014 167.755L195.666 167.404L191.028 162.715L190.881 162.567H190.673H159.844H159.344V163.067V163.399V163.899H159.844H190.327L194.723 168.342L195.078 168.702L195.434 168.342L195.666 168.107Z" fill="black" stroke="black"/>
<path d="M216.678 146.715V146.215H216.178H199.791L191.709 138.04L191.562 137.891H191.353H177.332H176.832V138.391V138.723V139.223H177.332H191.008L199.096 147.394L199.242 147.542H199.451H216.178H216.678V147.042V146.715Z" fill="black" stroke="black"/>
<path d="M216.695 155.034V154.534H216.195H199.808L191.726 146.363L191.579 146.215H191.37H167.668H167.168V146.715V147.042V147.542H167.668H191.025L199.113 155.718L199.259 155.866H199.468H216.195H216.695V155.366V155.034Z" fill="black" stroke="black"/>
<path d="M195.666 151.296L196.014 150.944L195.666 150.593L195.434 150.357L195.078 149.998L194.723 150.357L190.328 154.795H159.844H159.344V155.295V155.628V156.128H159.844H190.673H190.881L191.028 155.979L195.666 151.296Z" fill="black" stroke="black"/>
<path d="M177.555 179.323L177.549 179.316L177.542 179.309C177.324 179.098 177.05 178.974 176.728 178.974C176.406 178.974 176.131 179.098 175.914 179.309L175.907 179.316L175.9 179.323C175.691 179.543 175.57 179.818 175.57 180.138C175.57 180.454 175.688 180.739 175.907 180.96L175.907 180.96L175.914 180.967C176.131 181.179 176.406 181.303 176.728 181.303C177.05 181.303 177.324 181.179 177.542 180.967L177.542 180.967L177.549 180.96C177.768 180.739 177.885 180.454 177.885 180.138C177.885 179.818 177.764 179.543 177.555 179.323Z" fill="black" stroke="black"/>
<path d="M160.096 162.414L160.096 162.414L160.089 162.407C159.871 162.196 159.597 162.071 159.275 162.071C158.952 162.071 158.678 162.196 158.461 162.407L158.461 162.407L158.454 162.414C158.235 162.636 158.117 162.921 158.117 163.236C158.117 163.557 158.238 163.831 158.447 164.051L158.454 164.058L158.461 164.065C158.678 164.276 158.952 164.401 159.275 164.401C159.597 164.401 159.871 164.276 160.089 164.065L160.096 164.058L160.102 164.051C160.311 163.831 160.432 163.557 160.432 163.236C160.432 162.921 160.315 162.636 160.096 162.414Z" fill="black" stroke="black"/>
<path d="M160.096 154.641L160.096 154.641L160.089 154.634C159.871 154.423 159.597 154.298 159.275 154.298C158.952 154.298 158.678 154.423 158.461 154.634L158.461 154.634L158.454 154.641C158.235 154.863 158.117 155.148 158.117 155.463C158.117 155.782 158.237 156.061 158.454 156.28C158.681 156.509 158.961 156.623 159.275 156.623C159.588 156.623 159.869 156.509 160.096 156.28C160.312 156.061 160.432 155.782 160.432 155.463C160.432 155.148 160.315 154.863 160.096 154.641Z" fill="black" stroke="black"/>
<path d="M167 173.06C167.682 173.06 168.239 172.503 168.239 171.818C168.239 171.131 167.684 170.572 167 170.572C166.309 170.572 165.762 171.133 165.762 171.818C165.762 172.501 166.312 173.06 167 173.06ZM167 171.896C166.96 171.896 166.924 171.861 166.924 171.818C166.924 171.767 166.963 171.735 167 171.735C167.03 171.735 167.072 171.764 167.072 171.818C167.072 171.839 167.064 171.859 167.048 171.874C167.033 171.89 167.015 171.896 167 171.896Z" fill="black" stroke="black"/>
<path d="M167 148.125C167.684 148.125 168.239 147.566 168.239 146.878C168.239 146.198 167.686 145.632 167 145.632C166.307 145.632 165.762 146.2 165.762 146.878C165.762 147.564 166.309 148.125 167 148.125ZM167 146.961C166.963 146.961 166.924 146.929 166.924 146.878C166.924 146.833 166.957 146.801 167 146.801C167.035 146.801 167.072 146.83 167.072 146.878C167.072 146.932 167.03 146.961 167 146.961Z" fill="black" stroke="black"/>
<path d="M177.542 139.385L177.542 139.384C177.324 139.596 177.05 139.72 176.728 139.72C176.406 139.72 176.131 139.596 175.914 139.384L175.907 139.378L175.907 139.378C175.688 139.156 175.57 138.871 175.57 138.556C175.57 138.243 175.689 137.959 175.907 137.739C176.134 137.509 176.414 137.396 176.728 137.396C177.042 137.396 177.322 137.509 177.549 137.739M177.542 139.385L177.549 137.739M177.542 139.385L177.549 139.378C177.768 139.156 177.885 138.871 177.885 138.556C177.885 138.243 177.767 137.959 177.549 137.739M177.542 139.385L177.193 138.09L177.549 137.739" fill="black" stroke="black"/>
<path d="M215.684 147.042V147.542H216.184H232.911H233.119L233.266 147.394L241.354 139.223H255.024H255.524V138.723V138.391V137.891H255.024H241.009H240.8L240.653 138.039L232.565 146.215H216.184H215.684V146.715V147.042Z" fill="black" stroke="black"/>
<path d="M215.684 155.366V155.866H216.184H232.911H233.119L233.266 155.718L241.354 147.542H264.706H265.206V147.042V146.715V146.215H264.706H241.009H240.8L240.653 146.363L232.565 154.539H216.184H215.684V155.039V155.366Z" fill="black" stroke="black"/>
<path d="M236.699 150.593L236.351 150.944L236.699 151.296L241.332 155.979L241.479 156.128H241.688H272.517H273.017V155.628V155.295V154.795H272.517H242.033L237.643 150.357L237.287 149.998L236.932 150.357L236.699 150.593Z" fill="black" stroke="black"/>
<path d="M215.684 171.983V172.483H216.184H232.565L240.653 180.659L240.8 180.807H241.009H255.024H255.524V180.307V179.975V179.475H255.024H241.354L233.266 171.299L233.119 171.151H232.911H216.184H215.684V171.651V171.983Z" fill="black" stroke="black"/>
<path d="M215.684 163.659V164.159H216.184H232.565L240.653 172.335L240.8 172.483H241.009H264.706H265.206V171.983V171.651V171.151H264.706H241.354L233.266 162.976L233.119 162.827H232.911H216.184H215.684V163.327V163.659Z" fill="black" stroke="black"/>
<path d="M236.699 167.403L236.351 167.754L236.699 168.106L236.932 168.341L237.288 168.701L237.643 168.341L242.033 163.898H272.517H273.017V163.398V163.071V162.571H272.517H241.688H241.479L241.332 162.719L236.699 167.403ZM237.052 167.757V167.757Z" fill="black" stroke="black"/>
<path d="M254.817 139.378L254.817 139.378C255.037 139.6 255.321 139.72 255.638 139.72C255.95 139.72 256.233 139.599 256.45 139.381C256.685 139.151 256.791 138.86 256.791 138.556C256.791 138.255 256.685 137.967 256.454 137.739C256.228 137.505 255.94 137.396 255.638 137.396C255.332 137.396 255.042 137.505 254.814 137.742C254.598 137.962 254.48 138.245 254.48 138.556C254.48 138.871 254.598 139.156 254.817 139.378Z" fill="black" stroke="black"/>
<path d="M272.294 154.642C272.074 154.864 271.957 155.149 271.957 155.464C271.957 155.782 272.076 156.06 272.29 156.278C272.518 156.516 272.808 156.624 273.115 156.624C273.424 156.624 273.706 156.514 273.93 156.281C274.16 156.055 274.267 155.772 274.267 155.464C274.267 155.16 274.162 154.869 273.927 154.639C273.711 154.422 273.434 154.3 273.115 154.3C272.798 154.3 272.513 154.42 272.294 154.642ZM272.294 154.642L272.647 154.992L272.294 154.642Z" fill="black" stroke="black"/>
<path d="M272.294 162.412C272.074 162.634 271.957 162.919 271.957 163.234C271.957 163.555 272.078 163.829 272.287 164.049L272.287 164.049L272.294 164.056C272.513 164.278 272.798 164.399 273.115 164.399C273.435 164.399 273.714 164.275 273.93 164.056L273.93 164.056C274.157 163.827 274.267 163.546 274.267 163.234C274.267 162.929 274.162 162.639 273.927 162.409C273.711 162.192 273.434 162.069 273.115 162.069C272.798 162.069 272.513 162.19 272.294 162.412ZM272.294 162.412L272.649 162.764L272.294 162.412Z" fill="black" stroke="black"/>
<path d="M265.371 145.632C264.685 145.632 264.133 146.198 264.133 146.878C264.133 147.566 264.688 148.125 265.371 148.125C266.055 148.125 266.61 147.566 266.61 146.878C266.61 146.198 266.057 145.632 265.371 145.632ZM265.371 146.795C265.403 146.795 265.443 146.821 265.443 146.878C265.443 146.935 265.403 146.961 265.371 146.961C265.334 146.961 265.295 146.929 265.295 146.878C265.295 146.827 265.334 146.795 265.371 146.795Z" fill="black" stroke="black"/>
<path d="M265.371 170.572C264.688 170.572 264.133 171.131 264.133 171.818C264.133 172.503 264.69 173.06 265.371 173.06C266.053 173.06 266.61 172.503 266.61 171.818C266.61 171.131 266.055 170.572 265.371 170.572ZM265.371 171.735C265.403 171.735 265.443 171.761 265.443 171.818C265.443 171.867 265.406 171.896 265.371 171.896C265.331 171.896 265.295 171.861 265.295 171.818C265.295 171.767 265.334 171.735 265.371 171.735Z" fill="black" stroke="black"/>
<path d="M254.817 180.96L254.817 180.96C255.037 181.182 255.321 181.303 255.638 181.303C255.95 181.303 256.233 181.182 256.45 180.964C256.685 180.734 256.791 180.443 256.791 180.138C256.791 179.826 256.68 179.545 256.454 179.316C256.236 179.096 255.952 178.974 255.638 178.974C255.321 178.974 255.037 179.094 254.817 179.316L254.817 179.316L254.81 179.323C254.602 179.543 254.48 179.818 254.48 180.138C254.48 180.454 254.598 180.739 254.817 180.96Z" fill="black" stroke="black"/>
<path d="M216.678 171.651V171.151H216.178H199.451H199.242L199.096 171.299L191.008 179.475H177.332H176.832V179.975V180.307V180.807H177.332H191.353H191.562L191.709 180.659L199.791 172.483H216.178H216.678V171.983V171.651Z" fill="black" stroke="black"/>
<path d="M216.695 163.327V162.827H216.195H199.468H199.259L199.113 162.976L191.025 171.151H167.668H167.168V171.651V171.983V172.483H167.668H191.37H191.579L191.726 172.335L199.808 164.159H216.195H216.695V163.659V163.327Z" fill="black" stroke="black"/>
<path d="M195.666 168.107L196.014 167.755L195.666 167.404L191.028 162.715L190.881 162.567H190.673H159.844H159.344V163.067V163.399V163.899H159.844H190.327L194.723 168.342L195.078 168.702L195.434 168.342L195.666 168.107Z" fill="black" stroke="black"/>
<path d="M216.678 146.715V146.215H216.178H199.791L191.709 138.04L191.562 137.891H191.353H177.332H176.832V138.391V138.723V139.223H177.332H191.008L199.096 147.394L199.242 147.542H199.451H216.178H216.678V147.042V146.715Z" fill="black" stroke="black"/>
<path d="M216.695 155.034V154.534H216.195H199.808L191.726 146.363L191.579 146.215H191.37H167.668H167.168V146.715V147.042V147.542H167.668H191.025L199.113 155.718L199.259 155.866H199.468H216.195H216.695V155.366V155.034Z" fill="black" stroke="black"/>
<path d="M195.666 151.296L196.014 150.944L195.666 150.593L195.434 150.357L195.078 149.998L194.723 150.357L190.328 154.795H159.844H159.344V155.295V155.628V156.128H159.844H190.673H190.881L191.028 155.979L195.666 151.296Z" fill="black" stroke="black"/>
<path d="M177.555 179.323L177.549 179.316L177.542 179.309C177.324 179.098 177.05 178.974 176.728 178.974C176.406 178.974 176.131 179.098 175.914 179.309L175.907 179.316L175.9 179.323C175.691 179.543 175.57 179.818 175.57 180.138C175.57 180.454 175.688 180.739 175.907 180.96L175.907 180.96L175.914 180.967C176.131 181.179 176.406 181.303 176.728 181.303C177.05 181.303 177.324 181.179 177.542 180.967L177.542 180.967L177.549 180.96C177.768 180.739 177.885 180.454 177.885 180.138C177.885 179.818 177.764 179.543 177.555 179.323Z" fill="black" stroke="black"/>
<path d="M160.096 162.414L160.096 162.414L160.089 162.407C159.871 162.196 159.597 162.071 159.275 162.071C158.952 162.071 158.678 162.196 158.461 162.407L158.461 162.407L158.454 162.414C158.235 162.636 158.117 162.921 158.117 163.236C158.117 163.557 158.238 163.831 158.447 164.051L158.454 164.058L158.461 164.065C158.678 164.276 158.952 164.401 159.275 164.401C159.597 164.401 159.871 164.276 160.089 164.065L160.096 164.058L160.102 164.051C160.311 163.831 160.432 163.557 160.432 163.236C160.432 162.921 160.315 162.636 160.096 162.414Z" fill="black" stroke="black"/>
<path d="M160.096 154.641L160.096 154.641L160.089 154.634C159.871 154.423 159.597 154.298 159.275 154.298C158.952 154.298 158.678 154.423 158.461 154.634L158.461 154.634L158.454 154.641C158.235 154.863 158.117 155.148 158.117 155.463C158.117 155.782 158.237 156.061 158.454 156.28C158.681 156.509 158.961 156.623 159.275 156.623C159.588 156.623 159.869 156.509 160.096 156.28C160.312 156.061 160.432 155.782 160.432 155.463C160.432 155.148 160.315 154.863 160.096 154.641Z" fill="black" stroke="black"/>
<path d="M167 173.06C167.682 173.06 168.239 172.503 168.239 171.818C168.239 171.131 167.684 170.572 167 170.572C166.309 170.572 165.762 171.133 165.762 171.818C165.762 172.501 166.312 173.06 167 173.06ZM167 171.896C166.96 171.896 166.924 171.861 166.924 171.818C166.924 171.767 166.963 171.735 167 171.735C167.03 171.735 167.072 171.764 167.072 171.818C167.072 171.839 167.064 171.859 167.048 171.874C167.033 171.89 167.015 171.896 167 171.896Z" fill="black" stroke="black"/>
<path d="M167 148.125C167.684 148.125 168.239 147.566 168.239 146.878C168.239 146.198 167.686 145.632 167 145.632C166.307 145.632 165.762 146.2 165.762 146.878C165.762 147.564 166.309 148.125 167 148.125ZM167 146.961C166.963 146.961 166.924 146.929 166.924 146.878C166.924 146.833 166.957 146.801 167 146.801C167.035 146.801 167.072 146.83 167.072 146.878C167.072 146.932 167.03 146.961 167 146.961Z" fill="black" stroke="black"/>
<path d="M177.542 139.385L177.542 139.384C177.324 139.596 177.05 139.72 176.728 139.72C176.406 139.72 176.131 139.596 175.914 139.384L175.907 139.378L175.907 139.378C175.688 139.156 175.57 138.871 175.57 138.556C175.57 138.243 175.689 137.959 175.907 137.739C176.134 137.509 176.414 137.396 176.728 137.396C177.042 137.396 177.322 137.509 177.549 137.739M177.542 139.385L177.549 137.739M177.542 139.385L177.549 139.378C177.768 139.156 177.885 138.871 177.885 138.556C177.885 138.243 177.767 137.959 177.549 137.739M177.542 139.385L177.193 138.09L177.549 137.739" fill="black" stroke="black"/>
<path d="M204.015 159.848H204.515V159.348V142.435V142.229L204.371 142.083L196.286 133.911V120.081V119.581H195.786H195.457H194.957V120.081V134.254V134.46L195.102 134.606L203.192 142.778V159.348V159.848H203.692H204.015Z" fill="black" stroke="black"/>
<path d="M212.254 159.848H212.754V159.348V142.434V142.229L212.609 142.083L204.519 133.91V110.294V109.794H204.019H203.695H203.195V110.294V134.254V134.459L203.34 134.605L211.43 142.778V159.348V159.848H211.93H212.254Z" fill="black" stroke="black"/>
<path d="M207.522 138.599L207.877 138.958L208.233 138.598L212.866 133.91L213.01 133.764V133.558V102.395V101.895H212.51H212.182H211.682V102.395V133.215L207.289 137.66L206.941 138.012L207.289 138.363L207.522 138.599Z" fill="black" stroke="black"/>
<path d="M228.688 159.848H229.188V159.348V142.778L237.278 134.606L237.423 134.46V134.254V120.081V119.581H236.923H236.594H236.094V120.081V133.91L228.004 142.083L227.859 142.229V142.435V159.348V159.848H228.359H228.688Z" fill="black" stroke="black"/>
<path d="M220.454 159.848H220.954V159.348V142.778L229.044 134.605L229.188 134.459V134.254V110.294V109.794H228.688H228.36H227.86V110.294V133.91L219.77 142.083L219.625 142.229V142.434V159.348V159.848H220.125H220.454Z" fill="black" stroke="black"/>
<path d="M224.149 138.598L224.504 138.958L224.86 138.599L225.092 138.363L225.44 138.012L225.092 137.66L220.695 133.215V102.395V101.895H220.195H219.871H219.371V102.395V133.558V133.764L219.515 133.91L224.149 138.598Z" fill="black" stroke="black"/>
<path d="M195.625 118.801C195.807 118.801 195.964 118.868 196.09 118.996C196.217 119.128 196.283 119.282 196.283 119.466C196.283 119.65 196.217 119.803 196.09 119.936C195.964 120.064 195.807 120.131 195.625 120.131C195.448 120.131 195.291 120.064 195.165 119.936C195.033 119.803 194.973 119.65 194.973 119.466C194.973 119.282 195.033 119.128 195.165 118.996C195.291 118.868 195.448 118.801 195.625 118.801Z" fill="black"/>
<path d="M212.345 101.147C212.527 101.147 212.679 101.214 212.81 101.342C212.937 101.475 212.998 101.628 212.998 101.812C212.998 101.996 212.937 102.15 212.81 102.283C212.679 102.41 212.527 102.477 212.345 102.477C212.163 102.477 212.006 102.41 211.88 102.283C211.753 102.15 211.688 101.996 211.688 101.812C211.688 101.628 211.753 101.475 211.88 101.342C212.006 101.214 212.163 101.147 212.345 101.147Z" fill="black"/>
<path d="M220.04 101.147C220.222 101.147 220.374 101.214 220.506 101.342C220.632 101.475 220.698 101.628 220.698 101.812C220.698 101.996 220.632 102.15 220.506 102.283C220.374 102.41 220.222 102.477 220.04 102.477C219.858 102.477 219.701 102.41 219.575 102.283C219.449 102.15 219.383 101.996 219.383 101.812C219.383 101.628 219.449 101.475 219.575 101.342C219.701 101.214 219.858 101.147 220.04 101.147Z" fill="black"/>
<path d="M203.856 110.382C203.451 110.382 203.117 110.045 203.117 109.636C203.117 109.222 203.451 108.889 203.856 108.889C204.265 108.889 204.594 109.222 204.594 109.636C204.594 110.045 204.265 110.382 203.856 110.382ZM203.856 109.053C203.537 109.053 203.284 109.314 203.284 109.636C203.284 109.953 203.537 110.213 203.856 110.213C204.174 110.213 204.432 109.953 204.432 109.636C204.432 109.314 204.174 109.053 203.856 109.053Z" fill="black"/>
<path d="M228.52 110.382C228.11 110.382 227.781 110.045 227.781 109.636C227.781 109.222 228.11 108.889 228.52 108.889C228.924 108.889 229.253 109.222 229.253 109.636C229.253 110.045 228.924 110.382 228.52 110.382ZM228.52 109.053C228.201 109.053 227.943 109.314 227.943 109.636C227.943 109.953 228.201 110.213 228.52 110.213C228.833 110.213 229.091 109.953 229.091 109.636C229.091 109.314 228.833 109.053 228.52 109.053Z" fill="black"/>
<path d="M236.75 118.801C236.932 118.801 237.089 118.868 237.215 118.996C237.342 119.128 237.408 119.282 237.408 119.466C237.408 119.65 237.342 119.803 237.215 119.936C237.089 120.064 236.932 120.131 236.75 120.131C236.568 120.131 236.416 120.064 236.29 119.936C236.158 119.803 236.098 119.65 236.098 119.466C236.098 119.282 236.158 119.128 236.29 118.996C236.416 118.868 236.568 118.801 236.75 118.801Z" fill="black"/>
<path d="M228.359 158.849H227.859V159.349V176.257V176.463L228.004 176.609L236.094 184.787V198.611V199.111H236.594H236.923H237.423V198.611V184.443V184.237L237.278 184.091L229.188 175.914V159.349V158.849H228.688H228.359Z" fill="black" stroke="black"/>
<path d="M220.125 158.849H219.625V159.349V176.257V176.463L219.77 176.609L227.86 184.787V208.397V208.897H228.36H228.688H229.188V208.397V184.443V184.237L229.044 184.091L220.954 175.914V159.349V158.849H220.454H220.125Z" fill="black" stroke="black"/>
<path d="M224.86 180.098L224.504 179.738L224.149 180.098L219.516 184.781L219.371 184.927V185.133V216.296V216.796H219.871H220.195H220.695V216.296V185.476L225.092 181.036L225.44 180.685L225.092 180.333L224.86 180.098Z" fill="black" stroke="black"/>
<path d="M203.692 158.849H203.192V159.349V175.914L195.102 184.091L194.957 184.237V184.443V198.611V199.111H195.457H195.786H196.286V198.611V184.786L204.371 176.609L204.515 176.463V176.257V159.349V158.849H204.015H203.692Z" fill="black" stroke="black"/>
<path d="M211.925 158.849H211.425V159.349V175.914L203.34 184.091L203.195 184.237V184.443V208.397V208.897H203.695H204.019H204.519V208.397V184.787L212.609 176.609L212.754 176.463V176.257V159.349V158.849H212.254H211.925Z" fill="black" stroke="black"/>
<path d="M208.233 180.098L207.877 179.738L207.522 180.098L207.289 180.333L206.941 180.684L207.289 181.036L211.682 185.476V216.296V216.796H212.182H212.51H213.01V216.296V185.133V184.927L212.866 184.781L208.233 180.098Z" fill="black" stroke="black"/>
<path d="M204.015 159.848H204.515V159.348V142.435V142.229L204.371 142.083L196.286 133.911V120.081V119.581H195.786H195.457H194.957V120.081V134.254V134.46L195.102 134.606L203.192 142.778V159.348V159.848H203.692H204.015Z" fill="black" stroke="black"/>
<path d="M212.254 159.848H212.754V159.348V142.434V142.229L212.609 142.083L204.519 133.91V110.294V109.794H204.019H203.695H203.195V110.294V134.254V134.459L203.34 134.605L211.43 142.778V159.348V159.848H211.93H212.254Z" fill="black" stroke="black"/>
<path d="M207.522 138.599L207.877 138.958L208.233 138.598L212.866 133.91L213.01 133.764V133.558V102.395V101.895H212.51H212.182H211.682V102.395V133.215L207.289 137.66L206.941 138.012L207.289 138.363L207.522 138.599Z" fill="black" stroke="black"/>
<path d="M228.688 159.848H229.188V159.348V142.778L237.278 134.606L237.423 134.46V134.254V120.081V119.581H236.923H236.594H236.094V120.081V133.91L228.004 142.083L227.859 142.229V142.435V159.348V159.848H228.359H228.688Z" fill="black" stroke="black"/>
<path d="M220.454 159.848H220.954V159.348V142.778L229.044 134.605L229.188 134.459V134.254V110.294V109.794H228.688H228.36H227.86V110.294V133.91L219.77 142.083L219.625 142.229V142.434V159.348V159.848H220.125H220.454Z" fill="black" stroke="black"/>
<path d="M224.149 138.598L224.504 138.958L224.86 138.599L225.092 138.363L225.44 138.012L225.092 137.66L220.695 133.215V102.395V101.895H220.195H219.871H219.371V102.395V133.558V133.764L219.515 133.91L224.149 138.598Z" fill="black" stroke="black"/>
<path d="M195.625 118.801C195.807 118.801 195.964 118.868 196.09 118.996C196.217 119.128 196.283 119.282 196.283 119.466C196.283 119.65 196.217 119.803 196.09 119.936C195.964 120.064 195.807 120.131 195.625 120.131C195.448 120.131 195.291 120.064 195.165 119.936C195.033 119.803 194.973 119.65 194.973 119.466C194.973 119.282 195.033 119.128 195.165 118.996C195.291 118.868 195.448 118.801 195.625 118.801Z" fill="black"/>
<path d="M212.345 101.147C212.527 101.147 212.679 101.214 212.81 101.342C212.937 101.475 212.998 101.628 212.998 101.812C212.998 101.996 212.937 102.15 212.81 102.283C212.679 102.41 212.527 102.477 212.345 102.477C212.163 102.477 212.006 102.41 211.88 102.283C211.753 102.15 211.688 101.996 211.688 101.812C211.688 101.628 211.753 101.475 211.88 101.342C212.006 101.214 212.163 101.147 212.345 101.147Z" fill="black"/>
<path d="M220.04 101.147C220.222 101.147 220.374 101.214 220.506 101.342C220.632 101.475 220.698 101.628 220.698 101.812C220.698 101.996 220.632 102.15 220.506 102.283C220.374 102.41 220.222 102.477 220.04 102.477C219.858 102.477 219.701 102.41 219.575 102.283C219.449 102.15 219.383 101.996 219.383 101.812C219.383 101.628 219.449 101.475 219.575 101.342C219.701 101.214 219.858 101.147 220.04 101.147Z" fill="black"/>
<path d="M203.856 110.382C203.451 110.382 203.117 110.045 203.117 109.636C203.117 109.222 203.451 108.889 203.856 108.889C204.265 108.889 204.594 109.222 204.594 109.636C204.594 110.045 204.265 110.382 203.856 110.382ZM203.856 109.053C203.537 109.053 203.284 109.314 203.284 109.636C203.284 109.953 203.537 110.213 203.856 110.213C204.174 110.213 204.432 109.953 204.432 109.636C204.432 109.314 204.174 109.053 203.856 109.053Z" fill="black"/>
<path d="M228.52 110.382C228.11 110.382 227.781 110.045 227.781 109.636C227.781 109.222 228.11 108.889 228.52 108.889C228.924 108.889 229.253 109.222 229.253 109.636C229.253 110.045 228.924 110.382 228.52 110.382ZM228.52 109.053C228.201 109.053 227.943 109.314 227.943 109.636C227.943 109.953 228.201 110.213 228.52 110.213C228.833 110.213 229.091 109.953 229.091 109.636C229.091 109.314 228.833 109.053 228.52 109.053Z" fill="black"/>
<path d="M236.75 118.801C236.932 118.801 237.089 118.868 237.215 118.996C237.342 119.128 237.408 119.282 237.408 119.466C237.408 119.65 237.342 119.803 237.215 119.936C237.089 120.064 236.932 120.131 236.75 120.131C236.568 120.131 236.416 120.064 236.29 119.936C236.158 119.803 236.098 119.65 236.098 119.466C236.098 119.282 236.158 119.128 236.29 118.996C236.416 118.868 236.568 118.801 236.75 118.801Z" fill="black"/>
</svg>
