<svg xmlns="http://www.w3.org/2000/svg" width="350.021" height="355.687" viewBox="0 0 350.021 355.687">
  <path id="Path_4" data-name="Path 4" d="M205.137,70.594l13.5-13.508c26.508-26.531,69.676-27.187,96.336-.812A68.165,68.165,0,0,1,328.25,134.52a32.678,32.678,0,0,0,6.219,37.445,95.358,95.358,0,0,0-.192-134.828C297,.027,236.469.77,199.293,37.977L70.617,166.77,60.035,156.176c-26.969-26.985-27.137-71.09.3-97.594a68.022,68.022,0,0,1,77.805-11.766,30.606,30.606,0,0,0,35.527-5.508L174,40.98a1.093,1.093,0,0,0-.008-1.551,95.18,95.18,0,0,0-132.527-.414C3.082,76.1,3.215,137.781,40.949,175.543L169.6,304.3l-13.668,13.68c-26.512,26.535-69.676,27.187-96.336.812a68.152,68.152,0,0,1-13.277-78.238,32.675,32.675,0,0,0-6.223-37.442,95.335,95.335,0,0,0,.18,134.809c37.281,37.109,97.8,36.371,134.985-.836L304.113,208.117l10.617,10.625c26.512,26.535,27.165,69.735.809,96.418a68.02,68.02,0,0,1-78.18,13.285,32.616,32.616,0,0,0-37.41,6.231,95.165,95.165,0,0,0,134.715-.2c37.078-37.312,36.336-97.886-.84-135.093ZM188.8,285.055,89.828,186l96.1-96.168L284.9,188.887Zm0,0" transform="translate(-12.268 -9.685)" fill="#fff"/>
</svg>
